<?xml version="1.0" standalone="no"?>
<!DOCTYPE svg PUBLIC "-//W3C//DTD SVG 20010904//EN"
 "http://www.w3.org/TR/2001/REC-SVG-20010904/DTD/svg10.dtd">
<svg version="1.0" xmlns="http://www.w3.org/2000/svg"
 width="1024.000000pt" height="1024.000000pt" viewBox="0 0 1024.000000 1024.000000"
 preserveAspectRatio="xMidYMid meet">
<metadata>
Created by potrace 1.16, written by Peter Selinger 2001-2019
</metadata>
<g transform="translate(0.000000,1024.000000) scale(0.100000,-0.100000)"
fill="#000000" stroke="none">
<path d="M2052 9223 l-2 -622 -61 -58 c-189 -179 -294 -290 -389 -408 -30 -37
-63 -75 -72 -84 -10 -8 -18 -19 -18 -23 0 -4 -29 -45 -64 -90 -89 -117 -221
-315 -284 -426 -122 -219 -232 -442 -283 -577 -11 -27 -23 -59 -28 -70 -5 -11
-16 -36 -25 -57 -9 -20 -16 -41 -16 -47 0 -6 -4 -19 -10 -29 -10 -17 -89 -263
-108 -337 -6 -22 -18 -65 -26 -95 -8 -30 -23 -91 -32 -135 -9 -44 -18 -86 -20
-92 -2 -8 -22 -13 -54 -13 -27 0 -50 -4 -50 -10 0 -5 20 -10 45 -10 51 0 52
-2 34 -91 -7 -30 -14 -76 -18 -104 -5 -45 -9 -50 -36 -56 -24 -5 -25 -7 -7 -8
29 -1 34 -15 24 -71 -6 -34 -12 -44 -25 -42 -11 2 -17 -4 -17 -18 0 -12 7 -20
16 -20 14 0 16 -9 11 -66 -3 -37 -10 -70 -17 -74 -8 -5 -10 -15 -6 -26 9 -25
13 -554 4 -554 -5 0 -8 -10 -8 -22 0 -16 3 -19 9 -10 9 15 21 -53 21 -119 0
-28 -4 -39 -15 -39 -8 0 -15 -7 -15 -15 0 -10 7 -15 17 -13 15 3 20 -11 30
-87 38 -267 90 -510 156 -720 66 -210 126 -376 182 -500 37 -85 199 -410 206
-415 3 -3 14 -21 24 -40 19 -38 153 -247 170 -267 5 -6 30 -42 55 -78 25 -37
52 -75 60 -84 8 -9 42 -50 75 -91 33 -41 102 -123 153 -182 52 -59 93 -110 92
-114 -1 -5 8 -12 20 -16 12 -4 24 -17 27 -28 3 -11 9 -20 14 -20 5 0 29 -20
54 -45 43 -44 45 -48 45 -105 0 -45 3 -58 13 -54 10 4 12 17 7 49 -4 25 -5 45
-3 45 8 0 103 -93 103 -101 0 -4 -13 -30 -28 -56 -59 -102 -76 -207 -46 -282
21 -54 56 -75 121 -74 l53 0 3 -516 2 -516 3 523 2 522 28 13 c31 14 71 46
121 96 40 42 61 45 97 14 15 -13 31 -23 36 -23 4 0 8 -257 8 -572 0 -314 2
-569 5 -566 3 2 5 255 5 561 0 306 3 557 6 557 3 0 32 -18 65 -40 l59 -41 0
-519 c0 -346 3 -520 10 -520 7 0 9 169 8 510 -3 449 -1 510 12 508 13 -3 16
-71 20 -513 l5 -510 3 498 c1 334 5 497 12 497 6 0 22 -7 35 -16 l25 -16 2
-482 3 -481 2 478 c2 263 7 477 11 475 49 -24 62 -32 62 -40 0 -4 7 -8 15 -8
13 0 15 -58 17 -452 l3 -453 2 443 c2 283 7 442 13 442 6 0 11 -159 12 -442
l3 -443 2 430 c2 266 7 433 13 439 7 7 10 -139 10 -427 0 -285 3 -437 10 -437
7 0 10 149 10 426 0 234 3 424 8 422 4 -1 49 -23 99 -48 l92 -45 1 -377 c0
-245 4 -378 10 -378 6 0 10 130 10 370 0 240 4 370 10 370 6 0 11 -132 12
-372 l3 -373 2 368 c2 233 7 367 13 367 6 0 11 -134 12 -367 l3 -368 2 359 c3
279 6 357 16 353 6 -2 29 -10 50 -18 l37 -13 2 -341 3 -340 2 333 c2 194 7
332 12 332 6 0 21 -4 35 -10 l25 -9 1 -317 c0 -175 3 -320 5 -323 3 -2 5 138
5 312 0 190 4 317 9 317 5 0 21 -4 35 -10 l26 -10 2 -307 3 -308 2 302 c3 260
5 303 18 303 13 0 15 -41 15 -300 0 -193 4 -300 10 -300 6 0 10 103 10 290 0
173 4 290 9 290 5 0 22 -5 38 -12 31 -13 38 -15 53 -17 6 -1 11 -103 12 -278
l3 -278 2 273 c3 253 5 273 21 270 15 -3 17 -27 22 -273 l5 -270 3 263 c2 290
-2 276 69 247 19 -8 44 -15 54 -15 18 0 19 -12 19 -245 0 -157 4 -245 10 -245
6 0 10 85 10 235 0 260 -5 242 63 226 l29 -6 -2 -228 c0 -150 3 -227 10 -227
6 0 10 75 10 221 l0 220 22 -3 c20 -3 22 -8 20 -49 -2 -26 1 -50 7 -54 7 -4
11 9 11 39 0 25 4 47 9 50 17 11 41 -6 42 -28 1 -16 2 -17 6 -3 2 9 13 17 24
17 16 0 19 -7 19 -40 0 -23 7 -54 15 -70 12 -24 22 -29 57 -32 l43 -3 0 -52
c-1 -29 3 -53 7 -53 12 0 21 46 16 81 -4 25 0 33 24 45 36 19 44 14 51 -33 9
-67 48 -153 88 -195 21 -23 39 -44 39 -47 0 -17 103 -2 149 21 l50 24 4 -30
c3 -28 4 -27 5 7 2 37 8 47 73 117 9 10 18 22 20 27 10 24 75 122 81 123 4 0
9 -10 11 -23 l4 -22 2 23 c1 20 5 23 38 20 34 -3 40 -8 64 -52 39 -75 82 -106
144 -106 28 0 56 5 63 12 16 16 21 -1 25 -87 l3 -70 2 85 c2 83 3 86 32 103
l29 18 4 -103 3 -103 2 113 2 112 36 0 c30 0 43 7 73 40 30 33 43 40 74 40
l37 0 0 -150 0 -150 26 0 25 0 -3 154 -3 154 49 6 c27 3 53 3 57 0 5 -3 9 -75
9 -160 l0 -154 25 0 26 0 -3 160 c-3 178 -6 170 68 170 l44 0 3 -168 3 -167 2
171 c2 169 2 172 25 178 12 3 34 6 49 6 l28 0 3 -177 2 -178 3 181 2 182 35 4
c20 2 38 2 40 -1 3 -2 5 -85 5 -183 0 -109 4 -178 10 -178 6 0 11 74 12 187
l3 188 28 3 27 3 0 -190 c0 -121 4 -191 10 -191 6 0 10 71 10 194 0 192 0 194
23 200 12 3 25 6 30 6 4 0 7 -90 7 -200 0 -131 4 -200 10 -200 7 0 10 69 10
203 -2 198 -1 202 19 205 21 3 21 1 21 -202 0 -131 4 -206 10 -206 6 0 10 76
10 209 0 181 2 210 16 215 44 17 44 17 44 -209 0 -144 3 -215 11 -215 7 0 9
71 7 220 -3 204 -2 220 15 220 9 0 20 0 25 0 4 0 9 -100 12 -222 l6 -223 1
230 1 230 29 6 c15 4 38 7 51 8 l22 1 2 -237 2 -238 6 243 5 244 55 19 c97 34
89 54 93 -238 l3 -258 1 265 c1 232 4 265 17 268 14 3 16 -27 16 -267 0 -182
3 -271 10 -271 8 0 10 89 8 275 -3 255 -2 275 14 275 16 0 18 -22 21 -278 l2
-277 3 288 c1 222 5 287 15 287 6 0 22 3 35 6 l22 6 0 -291 c0 -187 4 -291 10
-291 6 0 10 107 10 300 0 259 2 300 15 300 13 0 15 -42 18 -297 l3 -298 -1
302 0 303 29 10 c16 6 31 8 33 6 2 -2 4 -144 3 -315 0 -206 3 -311 10 -311 7
0 10 108 10 320 0 296 1 321 18 327 25 9 143 62 174 79 14 8 31 14 37 14 7 0
12 -113 14 -372 l2 -373 3 380 2 380 28 13 c15 8 33 16 40 19 9 4 12 -78 12
-391 0 -257 4 -396 10 -396 7 0 10 142 10 405 0 239 4 405 9 405 5 0 15 2 23
5 11 4 13 -67 10 -405 -2 -277 1 -410 8 -410 7 0 10 139 10 422 0 278 3 419
10 412 6 -6 11 -168 13 -424 l2 -415 3 428 c1 273 6 427 12 427 6 0 11 -154
13 -427 l2 -428 3 438 c2 369 4 437 16 437 8 0 16 3 18 8 2 4 18 15 35 24 l33
17 3 -462 2 -462 3 467 2 467 30 16 c16 8 31 15 34 15 3 0 7 -217 9 -482 l2
-483 3 490 3 490 106 70 c58 39 109 71 114 73 5 2 9 -247 9 -554 0 -307 3
-560 5 -563 3 -2 5 251 5 564 l-1 569 23 18 23 17 5 -587 5 -587 3 598 c1 359
6 597 11 597 5 0 16 6 23 13 7 7 29 24 48 37 19 13 41 30 49 38 8 7 44 37 80
66 36 29 72 60 80 69 7 10 17 17 22 17 5 0 10 -319 12 -717 l2 -718 3 723 2
723 204 203 c112 112 205 208 207 213 4 10 79 100 129 154 14 15 31 37 39 50
28 47 106 139 119 139 7 0 17 -11 23 -24 6 -13 20 -28 30 -32 19 -9 19 -36 19
-1076 0 -948 2 -1068 15 -1068 13 0 15 118 13 1064 l-3 1064 48 22 c26 13 47
26 47 29 0 15 70 42 101 39 l34 -3 5 -1105 5 -1105 0 1113 c0 890 3 1112 13
1112 18 0 52 60 52 92 l0 28 218 3 217 2 -221 3 -220 2 -32 77 c-18 43 -32 84
-32 91 0 9 57 12 250 12 157 0 250 4 250 10 0 6 -96 11 -252 12 -250 3 -253 3
-256 24 -2 13 7 32 21 46 52 52 56 90 15 135 l-20 21 61 127 c59 122 171 395
171 415 0 6 4 18 9 28 11 20 32 85 56 167 9 33 18 66 21 73 2 8 31 13 91 14
l88 2 -82 3 c-64 3 -83 7 -83 18 0 8 11 58 24 112 22 85 53 247 71 365 5 34 9
38 35 38 20 0 30 5 30 15 0 9 -9 15 -25 15 -22 0 -25 4 -25 34 0 49 8 65 31
59 10 -3 19 0 19 6 0 6 -10 11 -21 11 -20 0 -21 4 -15 46 3 26 6 57 6 70 0 15
6 24 15 24 8 0 15 7 15 15 0 8 -3 15 -8 15 -4 0 -7 142 -7 315 0 173 3 315 7
315 5 0 8 7 8 15 0 8 -5 14 -12 13 -8 -2 -16 27 -24 87 -19 143 -18 155 11
155 16 0 25 6 25 15 0 10 -10 15 -29 15 -21 0 -30 6 -35 23 -13 48 -8 57 29
57 19 0 35 5 35 10 0 6 -17 10 -38 10 l-38 0 -13 78 c-7 42 -26 135 -42 206
-16 72 -29 136 -29 143 0 8 25 13 83 16 l82 3 -88 2 c-60 1 -89 6 -91 15 -2 6
-12 41 -21 77 -82 301 -273 759 -410 985 -25 41 -45 78 -45 83 0 6 -4 12 -8
14 -7 2 -72 103 -125 193 -7 11 -14 22 -17 25 -19 18 -70 90 -70 98 0 6 -3 12
-7 14 -5 2 -29 30 -55 63 -76 95 -108 134 -186 222 -40 45 -71 88 -70 95 2 6
-4 12 -12 13 -8 0 -54 41 -102 90 l-88 89 0 713 c0 469 -3 713 -10 713 -7 0
-10 -240 -10 -700 0 -385 -3 -700 -7 -700 -5 0 -39 30 -78 66 -38 36 -75 69
-82 72 -6 4 -29 23 -50 42 -21 19 -50 43 -65 53 l-28 17 -2 578 -3 577 -2
-567 c-2 -313 -7 -568 -11 -568 -4 0 -21 12 -38 28 -17 15 -38 32 -46 37 -8 6
-31 21 -51 35 l-37 25 -2 505 -3 505 -2 -497 c-3 -459 -7 -523 -28 -488 -3 5
-5 228 -5 495 0 323 -3 485 -10 485 -7 0 -10 -161 -10 -481 l0 -481 -22 16
c-13 9 -31 19 -40 23 -17 5 -18 37 -20 467 l-3 461 -2 -452 c-2 -272 -7 -453
-13 -453 -5 0 -16 10 -25 23 -8 12 -16 20 -18 18 -3 -7 -67 23 -67 31 0 5 -7
8 -15 8 -13 0 -15 54 -17 413 l-3 412 -2 -402 c-2 -222 -6 -403 -9 -403 -3 0
-18 7 -34 15 l-30 16 -2 387 -3 387 -2 -382 -3 -382 -165 82 -164 82 0 298
c-1 191 -5 297 -11 297 -6 0 -10 -103 -10 -290 0 -187 -4 -290 -10 -290 -5 0
-10 5 -10 11 0 5 -4 8 -9 4 -5 -3 -21 0 -35 6 l-26 12 0 274 c0 175 -4 273
-10 273 -6 0 -10 -97 -10 -270 0 -173 -4 -270 -10 -270 -5 0 -10 7 -10 16 0 8
-4 13 -9 10 -5 -3 -22 -1 -37 4 l-29 10 3 250 c2 167 -1 250 -8 250 -6 0 -10
-83 -10 -246 l0 -245 -22 7 c-12 3 -36 13 -55 20 l-33 14 -2 228 -3 227 -2
-222 c-3 -189 -6 -223 -18 -223 -13 0 -15 32 -15 220 0 140 -4 220 -10 220 -6
0 -10 -76 -10 -208 0 -115 -3 -212 -7 -215 -3 -4 -11 -3 -17 1 -6 5 -30 14
-53 21 l-43 12 0 194 c0 169 -2 195 -15 195 -14 0 -16 -25 -15 -187 1 -127 -2
-189 -9 -191 -8 -3 -11 54 -11 187 0 121 -4 191 -10 191 -6 0 -10 -67 -10
-181 0 -160 -2 -180 -16 -177 -14 3 -16 26 -15 181 1 117 -2 177 -9 177 -6 0
-10 -61 -10 -176 0 -157 -2 -175 -16 -170 -9 3 -16 6 -17 6 -1 0 -2 75 -2 167
l1 168 -3 -162 -3 -163 -25 0 -25 0 0 165 c0 216 -18 222 -22 8 -3 -135 -5
-157 -18 -154 -8 2 -28 7 -45 10 l-30 7 -5 149 -6 150 -2 -147 c-1 -82 -5
-148 -9 -147 -5 0 -16 4 -27 8 -17 6 -18 19 -17 144 2 118 0 137 -14 137 -13
0 -15 -20 -15 -135 0 -75 -4 -135 -9 -135 -34 0 -36 10 -33 140 2 87 0 130 -7
130 -7 0 -11 -44 -11 -126 l0 -125 -27 3 -28 3 -3 123 c-4 161 -22 162 -22 1
0 -121 0 -121 -22 -115 -13 3 -26 6 -30 6 -5 0 -8 52 -8 115 0 70 -4 115 -10
115 -6 0 -10 -44 -10 -111 l0 -110 -36 3 -37 3 2 95 c2 91 1 94 -14 66 -9 -17
-15 -54 -15 -93 0 -63 -1 -65 -22 -59 -13 3 -33 6 -45 6 -17 0 -23 6 -23 23 0
13 5 28 12 35 7 7 8 12 2 12 -16 0 -34 -22 -34 -42 0 -11 -7 -18 -19 -18 -25
0 -34 27 -13 39 9 6 12 11 6 11 -6 0 -11 18 -10 43 0 23 -3 54 -7 70 l-7 27
-104 0 c-76 0 -112 -4 -136 -16 -31 -16 -34 -16 -45 0 -11 14 -40 16 -249 16
-130 0 -236 -4 -236 -8 0 -22 39 -42 82 -42 41 0 48 -3 72 -38 32 -47 32 -48
0 -55 -17 -3 -28 0 -32 11 -10 27 -36 52 -53 52 -10 0 -20 6 -23 13 -3 6 -5
-9 -3 -35 l2 -47 -71 -6 c-110 -11 -108 -13 -105 78 l2 77 -35 0 -35 0 -3 -82
-3 -83 -55 -6 c-30 -3 -58 -4 -62 -2 -5 2 -8 42 -8 89 0 70 -3 84 -16 84 -13
0 -15 -13 -12 -90 3 -98 2 -100 -64 -100 l-28 0 0 95 c0 57 -4 95 -10 95 -6 0
-10 -40 -10 -100 0 -97 -1 -100 -22 -100 -13 0 -33 -3 -45 -6 -23 -6 -23 -5
-23 100 0 140 -18 139 -22 -1 l-3 -108 -37 -3 -38 -3 0 110 c0 67 -4 111 -10
111 -6 0 -10 -45 -10 -114 l0 -114 -50 -11 c-96 -21 -90 -28 -90 114 0 81 -4
125 -11 125 -7 0 -9 -44 -7 -130 3 -128 2 -131 -19 -136 -39 -10 -43 2 -43
137 0 83 -4 129 -10 129 -7 0 -10 -47 -9 -137 l1 -138 -68 -18 c-38 -10 -76
-19 -84 -20 -13 -2 -16 24 -20 158 l-5 160 -5 -165 c-5 -162 -5 -165 -27 -168
-23 -3 -23 -3 -25 165 l-2 168 -6 -175 c-4 -147 -7 -175 -20 -175 -13 0 -16
28 -20 175 l-6 175 -2 -181 -2 -181 -39 -11 c-21 -7 -43 -12 -50 -12 -8 0 -12
57 -13 193 l-2 192 -6 -199 -5 -200 -30 -8 c-54 -15 -54 -14 -58 199 l-3 198
-1 -210 c-1 -184 -3 -210 -17 -213 -14 -3 -16 21 -19 215 l-2 218 -3 -221 -2
-220 -52 -19 c-29 -10 -55 -19 -58 -19 -3 -1 -7 107 -10 239 l-6 240 -1 -245
c-1 -135 -5 -245 -10 -245 -4 0 -9 109 -11 243 -1 150 -6 242 -12 242 -6 0
-10 -93 -10 -250 l0 -251 -46 -19 c-25 -11 -57 -23 -70 -26 l-24 -6 -3 278 -2
279 -3 -285 -2 -285 -32 -14 c-18 -8 -66 -29 -105 -48 -40 -19 -75 -33 -79
-33 -4 1 -10 -2 -13 -7 -6 -8 -18 -15 -107 -64 -31 -16 -67 -37 -80 -46 -13
-8 -24 -11 -24 -7 0 5 0 183 0 397 0 264 -3 387 -10 387 -7 0 -10 -126 -10
-401 l1 -401 -30 -19 -31 -19 -3 423 -2 422 -3 -425 -2 -426 -32 -19 c-18 -10
-33 -17 -33 -15 0 3 -11 -5 -24 -17 -13 -12 -28 -20 -33 -17 -4 3 -8 1 -8 -5
0 -12 -91 -77 -102 -73 -5 1 -8 -2 -8 -7 0 -8 -105 -91 -115 -91 -3 0 -6 246
-8 548 l-2 547 -3 -557 c-2 -538 -3 -558 -21 -568 -11 -5 -25 -16 -33 -23 -7
-7 -34 -30 -60 -51 l-48 -38 -3 618 -2 619 -3 -622z m3305 302 c3 -9 3 -19 -1
-22 -3 -4 -101 -8 -216 -11 -116 -3 -210 -9 -210 -13 0 -5 5 -9 12 -9 7 0 8
-3 3 -9 -6 -5 -47 -11 -92 -13 l-83 -3 0 27 c0 25 3 28 36 28 30 0 34 2 25 14
-9 11 -9 15 1 19 7 3 127 6 266 6 219 1 253 -1 259 -14z m-602 -20 c0 -11 -10
-24 -23 -30 -12 -5 -20 -15 -18 -22 6 -14 -16 -23 -60 -23 -29 0 -34 3 -34 24
0 14 5 28 10 31 8 5 8 11 0 20 -9 11 -5 14 17 18 15 2 46 4 68 3 33 -1 40 -5
40 -21z m801 12 c3 -3 1 -20 -3 -38 -9 -33 -9 -33 -63 -30 -30 1 -57 4 -60 6
-4 2 -4 20 -2 41 l4 37 60 -6 c33 -3 62 -7 64 -10z m-976 -14 c0 -5 4 -25 9
-45 8 -36 8 -38 -15 -38 -17 0 -24 6 -24 20 0 15 -7 20 -24 20 -19 0 -25 -6
-28 -27 -4 -35 -48 -48 -48 -14 0 24 -11 33 -29 21 -8 -4 -12 -17 -8 -29 3
-12 1 -21 -3 -21 -5 0 -16 -3 -26 -7 -15 -6 -17 -1 -11 47 4 29 8 54 10 56 1
2 21 6 43 10 37 5 42 4 48 -17 7 -24 9 -22 21 19 5 13 85 18 85 5z m1102 -18
c-2 -11 -8 -21 -13 -23 -5 -2 -9 -10 -9 -18 0 -8 -10 -14 -24 -14 -44 0 -52 8
-48 46 4 35 4 35 51 32 40 -3 46 -6 43 -23z m86 9 c23 -5 28 -10 25 -25 -3
-10 0 -19 6 -19 6 0 11 7 11 15 0 9 9 15 24 15 36 0 55 -10 50 -25 -3 -7 -1
-16 5 -20 16 -9 13 -55 -3 -55 -26 0 -45 12 -40 25 9 21 -18 30 -32 10 -15
-20 -49 -13 -41 9 3 8 -1 17 -9 20 -21 8 -21 8 -27 -13 -6 -26 -57 -17 -57 10
0 11 5 19 10 19 6 0 10 9 10 20 0 21 15 24 68 14z m-1424 -51 c10 -62 8 -73
-14 -73 -13 0 -20 7 -20 20 0 11 -7 23 -15 26 -15 6 -21 45 -8 57 3 4 16 7 28
7 18 0 24 -7 29 -37z m-94 -2 c0 -10 7 -22 16 -25 10 -4 14 -15 12 -33 -4 -33
-25 -42 -30 -11 -2 12 -11 24 -20 26 -14 3 -18 -3 -18 -26 0 -21 -6 -31 -19
-35 -24 -6 -31 0 -31 25 0 10 -5 18 -11 18 -6 0 -9 -12 -7 -27 2 -23 -1 -29
-19 -31 -18 -3 -23 2 -23 17 0 12 -4 21 -10 21 -5 0 -10 -11 -10 -25 0 -14 -4
-25 -10 -25 -5 0 -10 13 -10 29 0 17 -4 32 -8 35 -5 3 -8 15 -7 28 2 30 61 40
68 11 3 -11 3 -10 2 4 -2 21 12 33 41 33 8 0 14 -10 14 -25 0 -14 5 -25 10
-25 6 0 10 14 10 30 0 27 3 30 30 30 23 0 30 -5 30 -19z m1720 0 c0 -10 -7
-21 -15 -25 -8 -3 -15 -15 -15 -26 0 -11 -7 -20 -15 -20 -11 0 -15 12 -15 45
0 43 1 45 30 45 23 0 30 -5 30 -19z m65 1 c6 -4 12 -28 13 -54 3 -40 1 -48
-13 -48 -13 0 -16 6 -13 25 3 14 1 28 -3 31 -5 3 -9 -7 -9 -21 0 -20 -4 -26
-17 -23 -22 4 -27 35 -14 71 10 26 35 35 56 19z m79 -43 c12 -62 8 -81 -16
-77 -16 2 -24 11 -25 28 -1 14 -5 37 -9 53 -6 24 -4 27 19 27 19 0 26 -6 31
-31z m-2086 -8 c2 -13 -1 -28 -7 -34 -6 -6 -11 -24 -11 -40 0 -21 -4 -28 -16
-25 -23 4 -26 116 -4 122 25 6 35 0 38 -23z m2141 20 c9 -6 12 -18 7 -37 -4
-16 -8 -38 -9 -49 -2 -18 -9 -21 -34 -17 -5 1 -6 27 -5 57 4 55 12 64 41 46z
m-2206 -45 c-1 -16 -8 -33 -14 -37 -7 -4 -9 -16 -6 -28 3 -14 -1 -22 -15 -27
-23 -7 -34 2 -41 31 -3 13 -5 9 -6 -12 -1 -22 -6 -33 -16 -33 -11 0 -14 13
-14 60 1 33 5 60 9 60 5 0 15 3 24 6 12 5 16 0 16 -20 0 -14 5 -26 11 -26 7 0
9 9 5 24 -7 28 1 38 29 34 15 -2 20 -10 18 -32z m2278 -1 c5 -20 7 -23 8 -9 2
31 8 33 54 19 34 -10 43 -17 45 -39 2 -14 8 -26 14 -26 5 0 7 7 4 15 -10 26
20 28 81 7 51 -18 58 -23 55 -44 -2 -13 -8 -27 -13 -32 -5 -6 -9 -18 -9 -28 0
-34 -30 -20 -31 15 -1 29 -2 30 -8 7 -6 -22 -13 -26 -39 -21 -4 0 -8 13 -7 28
0 14 -6 28 -12 30 -8 3 -13 -5 -13 -22 0 -17 -5 -25 -12 -22 -8 2 -12 15 -10
30 2 19 -1 27 -12 27 -9 0 -16 -8 -16 -20 0 -12 -7 -20 -16 -20 -14 0 -16 9
-11 53 l5 52 -11 -47 c-6 -27 -15 -48 -21 -48 -19 0 -31 14 -31 38 0 29 -19
33 -23 5 -4 -27 -32 -31 -32 -5 0 9 3 34 7 55 5 31 9 38 27 35 14 -2 23 -13
27 -33z m-2406 -27 c-3 -18 -8 -46 -9 -63 -2 -22 -8 -30 -22 -30 -23 0 -32 39
-14 60 6 8 9 19 5 25 -11 18 3 40 26 40 19 0 20 -4 14 -32z m-67 -48 c-2 -40
-7 -60 -15 -60 -9 0 -13 19 -13 60 0 47 3 60 15 60 13 0 15 -11 13 -60z m-42
18 c-4 -18 -9 -48 -13 -65 -6 -40 -42 -48 -44 -10 -1 17 -3 16 -8 -7 -3 -16
-12 -31 -19 -34 -10 -3 -12 10 -9 59 4 55 8 64 25 67 13 2 22 -3 25 -15 3 -11
3 -9 2 4 -2 22 7 31 34 32 10 1 12 -7 7 -31z m-116 -30 c0 -42 -13 -98 -21
-98 -5 0 -9 9 -9 20 0 31 -28 24 -32 -7 -5 -49 -33 -40 -45 14 l-11 48 5 -52
c5 -44 3 -53 -11 -53 -9 0 -16 8 -16 18 0 10 -5 23 -11 29 -6 6 -9 21 -7 34 2
18 16 27 68 45 82 29 90 29 90 2z m2943 -2 c-3 -13 0 -27 6 -30 7 -5 11 2 11
18 0 31 1 31 65 7 51 -19 70 -50 46 -74 -6 -6 -11 -19 -11 -29 0 -10 -7 -18
-15 -18 -10 0 -15 10 -15 31 0 18 -4 28 -10 24 -6 -4 -9 -14 -8 -23 5 -31 -27
-18 -33 13 -5 23 -7 25 -8 8 -2 -36 -31 -29 -31 7 0 17 -4 30 -10 30 -5 0 -10
-12 -10 -26 0 -37 -24 -25 -28 14 -2 24 1 32 12 32 9 0 16 9 16 20 0 11 6 20
14 20 9 0 12 -8 9 -24z m-1578 -37 c72 -5 227 -14 345 -18 442 -19 621 -43
776 -105 131 -52 364 -165 489 -237 50 -29 104 -60 120 -69 17 -9 77 -46 135
-80 58 -35 166 -92 240 -127 198 -94 206 -99 311 -192 52 -47 132 -119 176
-158 97 -87 197 -208 228 -277 44 -98 55 -126 47 -126 -4 0 -34 30 -68 67 -37
40 -65 63 -72 59 -17 -10 -6 -27 98 -146 96 -110 135 -160 125 -160 -12 0 26
-59 55 -83 16 -14 30 -29 30 -32 0 -3 11 -21 23 -38 31 -42 77 -133 77 -152 0
-8 -9 -23 -20 -32 -11 -10 -20 -23 -20 -30 0 -18 -64 -17 -99 2 -37 19 -127
117 -152 166 -11 22 -41 91 -68 154 -27 63 -66 138 -86 167 -50 70 -127 158
-137 158 -10 0 0 -103 15 -150 6 -19 11 -68 12 -109 l0 -74 -122 5 -122 5 23
-61 c13 -34 38 -92 56 -131 56 -123 120 -275 120 -288 0 -7 4 -17 8 -22 5 -6
23 -57 41 -115 18 -58 37 -119 42 -137 5 -17 12 -56 14 -85 2 -29 2 -44 -1
-33 -61 243 -107 390 -130 415 -10 10 -17 11 -25 3 -7 -7 -6 -27 6 -69 91
-324 137 -527 170 -754 10 -63 20 -122 24 -130 13 -32 11 137 -4 250 -8 65
-15 131 -14 147 l1 28 9 -30 c4 -17 13 -66 18 -110 5 -44 21 -151 35 -238 14
-87 26 -185 26 -216 0 -73 20 -142 55 -187 31 -41 125 -104 154 -104 11 0 22
-4 25 -8 6 -9 96 -29 135 -30 14 -1 35 10 49 26 25 26 25 28 18 152 -6 130
-36 330 -80 540 -16 73 -22 180 -10 180 3 0 14 -5 24 -10 13 -7 21 -7 25 0 16
26 105 -2 125 -39 5 -11 14 -60 19 -109 10 -95 26 -136 95 -242 27 -41 36 -65
36 -98 0 -40 -2 -43 -21 -37 -21 7 -22 5 -16 -61 3 -38 11 -119 18 -180 l13
-111 -26 -54 c-34 -69 -58 -163 -58 -221 0 -37 4 -47 20 -51 28 -7 27 -60 -1
-88 -21 -21 -33 -21 -95 -3 -29 8 -35 -21 -35 -168 l1 -118 -26 0 c-69 0 -116
-67 -149 -215 -10 -44 -36 -114 -57 -156 -38 -77 -49 -146 -30 -187 5 -9 21
-40 35 -68 18 -35 27 -68 27 -100 1 -68 15 -133 32 -151 21 -20 94 -29 112
-14 8 7 33 15 55 17 34 4 43 1 65 -23 29 -31 42 -61 31 -71 -4 -4 -57 -7 -118
-8 -128 -1 -187 -18 -299 -85 -72 -42 -116 -88 -154 -159 -13 -25 -24 -39 -24
-32 0 6 -10 12 -21 12 -12 0 -27 7 -33 15 -6 8 -34 16 -66 18 l-54 4 -22 -44
c-13 -24 -28 -60 -35 -80 -6 -20 -30 -56 -52 -80 -49 -54 -90 -58 -139 -15
-26 24 -31 36 -31 73 0 39 21 90 44 109 16 13 14 36 -5 45 -13 6 -22 22 -24
40 -2 24 3 34 27 48 16 9 42 17 58 17 l28 1 -22 18 c-16 14 -21 27 -18 52 2
19 1 28 -2 22 -2 -7 -18 -13 -34 -13 -22 0 -30 6 -35 24 -3 14 -3 30 1 37 5 7
3 10 -6 7 -8 -3 -20 -15 -26 -29 -17 -33 -16 -5 1 34 7 18 24 61 36 97 12 36
26 74 30 85 5 11 11 31 15 45 3 14 15 57 25 95 27 103 54 308 45 342 -6 23
-11 8 -26 -80 -37 -220 -88 -386 -171 -552 -28 -55 -53 -102 -56 -105 -4 -3
-18 -27 -32 -53 -34 -65 -109 -159 -120 -152 -6 3 -7 0 -4 -8 5 -13 -139 -167
-156 -167 -5 0 1 11 13 24 12 13 27 30 33 38 6 7 28 29 49 47 l39 35 -34 14
c-33 13 -33 13 -89 -41 -130 -125 -366 -290 -550 -384 -58 -29 -109 -53 -114
-53 -5 0 -23 -6 -40 -14 -18 -8 -54 -22 -82 -31 -27 -10 -57 -20 -65 -23 -58
-21 -248 -57 -410 -77 -135 -17 -333 -14 -470 8 l-75 11 171 12 c94 6 202 16
240 23 211 35 262 46 257 55 -3 5 -1 6 6 2 12 -8 110 8 146 24 11 4 47 16 80
26 33 9 67 21 75 25 8 4 35 15 60 24 310 119 528 254 738 459 227 221 344 399
437 666 142 408 185 606 185 861 0 140 1 149 19 149 18 0 28 -16 91 -149 3 -8
12 -17 20 -19 17 -6 9 130 -16 249 -18 86 -18 86 4 137 12 28 22 55 22 61 0
21 -24 11 -51 -21 -26 -30 -28 -31 -29 -11 0 35 -17 36 -62 5 -48 -32 -114
-64 -273 -131 -89 -38 -194 -75 -320 -115 -103 -31 -560 -146 -769 -192 -154
-34 -260 -61 -716 -180 -113 -30 -286 -75 -386 -100 -190 -48 -218 -58 -197
-72 13 -8 -15 -15 -187 -47 -122 -23 -160 -34 -160 -47 0 -13 132 -6 215 11
99 20 298 51 302 47 5 -4 -55 -18 -152 -35 -28 -5 -77 -14 -110 -21 -397 -75
-609 -100 -930 -110 -147 -4 -276 -12 -297 -19 -83 -26 -118 -138 -82 -261 7
-24 7 -24 -13 -8 -11 10 -29 18 -40 18 -24 0 -22 -13 21 -156 90 -300 335
-604 762 -948 150 -120 187 -166 235 -286 32 -82 85 -190 98 -200 3 -3 12 -17
20 -32 8 -15 22 -36 31 -46 9 -9 25 -31 35 -47 15 -26 13 -25 -19 9 -20 21
-36 42 -36 47 0 5 -5 9 -11 9 -5 0 -7 -5 -4 -10 3 -5 2 -10 -4 -10 -5 0 -11 8
-13 18 -3 9 -4 -3 -5 -28 0 -25 2 -39 4 -32 9 23 22 12 34 -28 14 -45 20 -48
45 -22 17 16 17 16 11 -7 -9 -37 44 -168 87 -213 14 -15 26 -29 26 -32 0 -9
-79 -47 -144 -68 -76 -25 -241 -47 -366 -49 -52 -1 -86 -4 -75 -6 11 -3 25 -9
30 -13 6 -4 55 -17 110 -29 55 -12 116 -26 136 -31 20 -6 52 -10 70 -10 19 0
50 -4 69 -9 19 -5 129 -17 243 -26 205 -17 267 -17 707 0 119 5 132 4 110 -8
-67 -38 -752 -58 -960 -29 -269 39 -501 99 -655 172 -44 21 -101 47 -126 59
-49 22 -59 41 -59 117 0 18 -5 45 -12 59 -17 37 -28 13 -28 -65 0 -47 -3 -60
-10 -48 -6 9 -18 14 -28 11 -22 -5 -84 40 -227 166 -57 50 -110 91 -118 91 -9
0 -18 4 -22 10 -3 6 -15 6 -29 0 -30 -11 -85 -10 -92 2 -3 5 -14 6 -24 3 -34
-11 -76 17 -175 114 -67 67 -112 103 -138 111 -20 6 -35 15 -32 20 3 4 -9 13
-25 19 -17 5 -31 7 -32 3 0 -4 -2 -11 -3 -17 -2 -5 -3 -16 -4 -22 0 -7 -4 -13
-9 -13 -4 0 -6 17 -4 39 3 32 -1 42 -23 60 -51 39 -100 22 -116 -42 -7 -29 -8
-28 -6 13 l2 45 -44 6 c-27 3 -50 14 -60 26 -9 12 -43 29 -76 38 -42 12 -69
27 -91 51 -56 61 -103 33 -84 -50 6 -30 6 -62 0 -97 -17 -90 -3 -137 66 -211
24 -25 53 -67 65 -92 12 -26 24 -44 27 -41 3 2 21 -11 40 -31 32 -33 34 -38
19 -49 -9 -7 -17 -18 -17 -24 0 -7 -4 -9 -10 -6 -6 4 -7 -1 -3 -11 9 -23 -24
-12 -110 40 -132 78 -197 152 -212 241 -18 103 -95 302 -177 454 -34 63 -45
77 -54 68 -6 -6 22 -103 36 -122 4 -5 10 -19 13 -30 13 -51 58 -203 66 -230 6
-16 17 -77 26 -135 9 -58 25 -126 36 -152 10 -26 19 -58 19 -72 0 -31 69 -165
120 -231 21 -27 81 -97 133 -153 91 -99 183 -220 174 -228 -10 -10 -307 299
-377 390 -89 117 -325 403 -353 429 -36 31 -31 8 9 -49 67 -95 70 -101 32 -65
-57 53 -135 166 -294 431 -341 566 -468 878 -540 1325 -14 88 -32 198 -40 245
-33 195 -27 568 11 770 8 41 19 98 25 125 44 230 79 340 63 200 -4 -38 -8
-212 -8 -385 0 -410 15 -495 154 -867 96 -260 274 -577 458 -818 5 -6 47 -63
96 -128 48 -64 91 -117 96 -117 18 0 -2 38 -70 130 -277 379 -442 680 -555
1014 -113 333 -152 597 -141 941 6 180 14 248 42 380 8 39 26 130 40 203 25
129 41 185 103 362 17 47 44 132 62 190 125 409 280 745 471 1017 83 117 457
490 654 652 421 344 900 592 1380 712 112 28 377 47 535 40 36 -2 106 2 155 8
224 30 330 34 510 20z m-1531 -30 c10 -52 7 -79 -9 -79 -9 0 -15 10 -15 26 0
16 -4 23 -11 18 -6 -3 -9 -17 -6 -30 3 -19 -2 -25 -26 -34 -17 -5 -31 -9 -33
-7 -1 1 -6 26 -10 55 -5 44 -4 52 9 52 12 0 17 -13 20 -47 l3 -48 2 53 c2 44
6 54 25 62 37 15 44 11 51 -21z m3287 18 c0 -29 -15 -97 -22 -97 -16 0 -20 21
-13 66 4 31 11 44 21 42 8 -2 14 -6 14 -11z m61 -17 c15 0 18 -9 18 -55 0 -30
-4 -55 -10 -55 -5 0 -10 4 -10 10 0 5 -6 7 -12 5 -29 -11 -40 11 -33 65 5 37
10 49 18 41 6 -6 19 -11 29 -11z m-3478 -51 c10 -52 7 -79 -9 -79 -12 0 -15
13 -15 55 0 60 14 74 24 24z m3579 10 c27 -9 36 -17 32 -29 -4 -8 -9 -27 -12
-42 -7 -37 -36 -38 -31 -1 2 15 -2 28 -9 30 -8 3 -13 -5 -13 -21 0 -14 -4 -26
-10 -26 -5 0 -10 8 -10 18 0 9 -3 35 -7 56 -5 31 -3 38 8 34 8 -3 31 -11 52
-19z m-3613 -44 c0 -30 -4 -55 -10 -55 -5 0 -10 12 -10 26 0 16 -4 23 -11 18
-6 -3 -9 -17 -6 -30 3 -19 -2 -27 -26 -39 -17 -8 -32 -15 -34 -15 -1 0 -3 25
-3 55 0 55 19 79 21 28 1 -26 2 -25 12 9 9 31 33 55 60 57 4 1 7 -24 7 -54z
m3718 1 c33 -14 41 -22 36 -35 -4 -9 -9 -28 -12 -43 -6 -38 -22 -35 -23 5 -1
25 -3 27 -6 9 -4 -19 -9 -23 -26 -18 -12 3 -25 6 -29 6 -10 0 -10 46 -2 78 4
13 9 21 13 20 3 -2 25 -12 49 -22z m-3828 -51 c0 -57 -16 -76 -23 -27 -4 26
-4 25 -6 -5 -1 -39 -21 -55 -21 -18 0 16 -4 24 -11 19 -6 -3 -8 -17 -5 -30 4
-14 2 -24 -4 -24 -5 0 -10 12 -10 26 0 36 -20 19 -21 -19 -2 -30 -2 -31 -6 -4
-6 36 -23 35 -23 -3 0 -35 -17 -40 -23 -7 -3 16 -5 13 -6 -10 -1 -40 -20 -44
-22 -5 -2 26 -2 26 -6 2 -8 -48 -16 -57 -23 -25 l-8 30 -1 -32 c-1 -38 -17
-44 -24 -10 -3 16 -5 14 -6 -9 -1 -35 -31 -57 -31 -24 0 11 -7 20 -15 20 -11
0 -14 -7 -9 -24 3 -13 1 -27 -5 -30 -7 -5 -11 3 -11 19 0 16 -4 24 -11 19 -6
-3 -8 -17 -5 -30 4 -13 2 -24 -3 -24 -5 0 -12 10 -14 23 -3 16 -5 13 -6 -10 0
-18 -3 -33 -5 -33 -2 0 -11 -3 -19 -6 -12 -4 -14 0 -10 17 4 16 2 20 -8 17 -9
-3 -13 -15 -11 -31 4 -33 -15 -36 -21 -4 -4 20 -4 19 -6 -4 0 -15 -8 -32 -16
-39 -13 -10 -15 -9 -15 9 0 12 -6 21 -15 21 -11 0 -14 -7 -11 -25 3 -13 1 -27
-4 -30 -5 -3 -11 7 -13 22 -4 27 -4 27 -6 -3 -1 -37 -31 -70 -31 -36 0 12 -4
24 -10 27 -6 4 -10 -8 -10 -28 0 -22 -6 -37 -15 -41 -11 -4 -15 2 -15 20 0 14
-4 22 -10 19 -5 -3 -10 -19 -10 -35 0 -15 -7 -30 -15 -34 -10 -4 -15 1 -15 14
0 11 -4 20 -10 20 -5 0 -10 -13 -10 -29 0 -16 -7 -34 -15 -41 -16 -13 -19 -8
-15 25 2 16 0 17 -14 6 -9 -7 -16 -26 -16 -42 0 -16 -2 -29 -4 -29 -2 0 -11
-3 -19 -6 -12 -4 -14 0 -10 17 4 16 2 20 -8 17 -8 -2 -16 -18 -17 -34 -4 -31
-18 -54 -34 -54 -6 0 -8 9 -5 20 3 11 2 20 -3 20 -15 0 -32 -29 -26 -47 4 -13
-5 -26 -28 -45 -33 -26 -35 -27 -38 -8 -3 19 -4 20 -25 5 -13 -9 -23 -27 -23
-39 0 -17 -49 -73 -174 -200 -95 -97 -181 -176 -189 -176 -10 0 -14 -6 -11
-15 8 -19 -36 -74 -58 -74 -11 -1 -18 -9 -18 -21 0 -10 -10 -28 -22 -40 -12
-11 -18 -20 -14 -20 8 0 -43 -75 -73 -107 -12 -12 -21 -27 -21 -33 0 -10 -20
-50 -30 -60 -29 -29 -201 -387 -259 -540 -18 -47 -37 -94 -41 -105 -11 -28
-67 -187 -72 -205 -3 -10 -19 -14 -54 -14 -46 1 -47 1 -6 -3 34 -3 42 -8 42
-24 0 -16 -8 -19 -52 -21 -39 -1 -44 -2 -18 -5 19 -2 40 -6 46 -8 8 -2 -2 -45
-31 -130 -23 -69 -45 -128 -49 -132 -3 -3 -6 -15 -6 -25 0 -10 -4 -18 -10 -18
-5 0 -9 -3 -9 -7 5 -33 -2 -38 -51 -35 -27 2 -50 0 -50 -5 0 -4 19 -8 42 -8
36 0 43 -3 43 -20 0 -16 -7 -19 -50 -19 -46 1 -47 0 -7 -3 34 -3 42 -8 42 -24
0 -16 -8 -19 -52 -21 l-53 -2 47 -3 c27 -2 48 -8 48 -13 0 -5 -9 -38 -21 -72
l-20 -63 -50 3 c-31 3 -49 0 -49 -7 0 -6 19 -11 45 -11 52 0 52 -1 27 -83
l-18 -58 -92 -5 -92 -5 0 27 c0 24 28 154 50 234 5 19 15 55 21 80 23 96 141
437 187 542 10 24 27 63 37 88 21 51 177 360 220 435 53 95 235 365 245 365 5
0 10 6 10 13 0 48 343 441 560 642 72 68 74 69 81 45 7 -23 7 -23 8 7 1 33 5
37 126 131 l30 24 6 -24 c6 -20 7 -19 8 8 1 22 9 37 26 48 31 21 33 20 38 -6
3 -17 5 -15 6 9 1 26 9 38 45 63 52 35 60 37 51 10 -4 -11 -2 -20 4 -20 6 0
11 14 11 30 0 17 2 30 4 30 2 0 11 3 19 6 12 4 14 0 10 -15 -3 -12 -1 -21 6
-21 6 0 11 13 11 29 0 16 7 34 15 41 13 11 15 8 16 -16 0 -25 2 -26 8 -9 5 11
6 25 4 32 -4 10 45 44 62 43 3 0 15 10 27 22 l23 23 6 -30 7 -30 1 32 c1 25 8
36 31 48 37 19 38 19 43 -7 3 -16 5 -13 6 11 1 25 5 32 16 27 8 -3 15 0 15 7
0 10 282 157 303 157 4 0 7 -25 7 -55z m3900 -25 c0 -48 -14 -67 -26 -35 -8
20 5 85 16 85 6 0 10 -22 10 -50z m109 -11 c63 -31 81 -45 82 -62 1 -17 2 -18
6 -4 7 26 23 21 23 -8 0 -14 -4 -25 -10 -25 -5 0 -10 -9 -10 -20 0 -22 -1 -23
-24 -14 -11 4 -14 15 -11 37 4 24 3 26 -3 9 -10 -32 -27 -23 -25 13 2 25 1 27
-5 7 -8 -27 -28 -28 -24 -1 2 9 -2 20 -8 24 -6 3 -10 -3 -10 -14 0 -12 -5 -21
-11 -21 -6 0 -9 6 -6 13 2 6 1 21 -4 32 -7 17 -8 16 -8 -7 -1 -42 -21 -33 -22
10 -2 30 -3 32 -6 10 -7 -45 -23 -32 -23 17 0 25 4 45 9 45 5 0 45 -18 90 -41z
m179 -95 c26 -14 82 -47 125 -72 71 -44 77 -49 78 -82 2 -30 3 -31 6 -7 5 31
15 34 37 12 8 -8 19 -15 25 -15 5 0 16 -8 23 -19 7 -10 16 -19 20 -20 30 -6
38 -15 34 -37 -3 -13 0 -24 5 -24 5 0 9 6 7 13 -2 6 0 14 3 17 5 5 54 -29 90
-62 11 -10 21 -18 24 -18 20 0 45 -29 46 -55 1 -24 3 -25 6 -7 l4 22 27 -19
c15 -11 36 -28 47 -38 11 -10 37 -32 58 -48 35 -26 38 -33 34 -62 -3 -18 -2
-35 3 -38 5 -3 10 9 12 27 l3 33 88 -85 c73 -70 88 -89 85 -111 -2 -18 6 -36
23 -53 l26 -26 -4 24 c-3 16 -10 23 -19 19 -10 -4 -14 3 -14 25 l0 30 60 -57
59 -56 -27 -6 c-25 -6 -25 -7 8 -9 38 -2 65 -29 258 -260 75 -90 145 -183 202
-270 47 -71 100 -153 100 -155 0 -1 22 -39 49 -84 50 -82 221 -423 221 -439 0
-4 11 -30 24 -58 12 -27 31 -71 40 -99 10 -27 21 -57 26 -65 4 -9 11 -31 15
-50 4 -19 11 -41 16 -50 20 -35 99 -300 99 -332 0 -13 -8 -18 -30 -18 -16 0
-30 -5 -30 -11 0 -6 15 -9 38 -7 33 3 37 0 40 -22 2 -14 7 -39 13 -56 5 -17
14 -55 19 -85 5 -30 17 -88 25 -129 13 -64 45 -259 45 -275 0 -13 -69 -3 -81
11 -7 9 -22 14 -35 11 -26 -5 -34 9 -34 59 0 31 2 34 30 34 25 0 29 2 18 13
-6 8 -22 11 -35 9 -15 -3 -23 0 -23 9 0 8 -3 24 -6 37 -6 20 -3 22 31 22 32 0
36 2 25 15 -7 8 -25 15 -41 15 -26 0 -29 3 -29 35 0 28 4 35 20 35 11 0 20 5
20 10 0 6 -11 10 -25 10 -17 0 -26 6 -29 23 -28 131 -43 195 -62 269 -13 48
-24 89 -24 92 0 2 12 7 28 9 27 4 27 4 -3 6 -28 1 -32 6 -48 59 -21 73 -21 90
1 95 9 2 6 4 -8 3 -33 -1 -40 31 -8 44 22 10 22 10 -4 7 -27 -4 -44 15 -32 34
3 5 1 9 -4 9 -6 0 -13 12 -16 27 -7 24 -66 182 -86 228 -5 11 -19 43 -31 70
-30 69 -120 249 -158 315 -17 30 -37 66 -44 80 -6 14 -14 27 -17 30 -4 3 -28
41 -55 85 -27 44 -55 86 -62 93 -7 7 -13 20 -13 28 0 8 -4 14 -8 14 -11 0 -82
103 -82 118 0 7 -7 12 -15 12 -8 0 -15 4 -15 9 0 4 -13 24 -30 42 -16 19 -30
37 -30 40 0 3 -18 25 -40 50 -22 24 -40 52 -40 62 0 9 -6 17 -12 17 -7 0 -77
64 -155 142 -133 133 -143 145 -143 180 0 28 -5 40 -21 49 -21 11 -22 10 -16
-20 4 -17 3 -31 -1 -31 -4 0 -29 22 -56 49 -33 34 -47 56 -46 72 4 40 1 49
-15 49 -8 0 -15 4 -15 9 0 5 -6 11 -14 14 -11 4 -12 -2 -6 -29 l8 -34 -27 20
c-42 29 -56 50 -53 80 2 15 -4 32 -12 39 -13 11 -14 8 -9 -25 l6 -38 -31 24
c-26 21 -31 32 -31 67 -1 35 -4 41 -17 36 -10 -4 -14 -14 -11 -29 4 -25 -3
-24 -35 4 -10 8 -18 25 -18 38 0 13 -4 26 -10 29 -5 3 -10 -3 -10 -14 0 -14
-5 -19 -15 -15 -8 4 -15 18 -15 34 0 15 -7 33 -15 40 -13 11 -15 8 -15 -15 0
-23 -2 -26 -15 -15 -8 7 -15 25 -15 41 0 16 -4 29 -10 29 -5 0 -10 -9 -10 -20
0 -13 -5 -18 -15 -14 -8 4 -15 19 -15 34 0 16 -4 32 -10 35 -6 4 -10 -5 -10
-21 0 -22 -2 -25 -15 -14 -9 7 -14 24 -13 38 2 14 -3 27 -11 30 -10 3 -13 -2
-9 -22 3 -14 2 -26 -3 -26 -13 0 -24 24 -20 48 1 12 -2 22 -8 22 -6 0 -11 -9
-11 -20 0 -17 -3 -19 -19 -11 -13 7 -17 18 -14 36 4 16 1 25 -7 25 -7 0 -10
-7 -7 -15 4 -8 2 -17 -3 -20 -6 -4 -10 7 -10 23 0 18 -6 32 -16 36 -13 5 -15
1 -12 -18 4 -21 2 -24 -12 -16 -10 5 -16 19 -15 32 1 13 0 15 -2 6 -6 -26 -23
-22 -23 5 0 26 10 67 17 67 2 0 25 -12 51 -26z m264 -1401 c25 -30 131 -223
125 -229 -9 -10 -45 15 -66 45 -28 39 -77 139 -85 174 -7 31 4 35 26 10z m778
-645 c14 -23 20 -51 20 -93 0 -149 -107 -198 -156 -70 -15 40 -15 53 -5 101
16 68 39 94 86 94 29 0 39 -6 55 -32z m-763 -230 c-2 -13 -4 -5 -4 17 -1 22 1
32 4 23 2 -10 2 -28 0 -40z m802 -114 c46 -33 68 -136 35 -168 -19 -19 -46 -8
-70 29 -22 34 -31 134 -13 146 19 12 21 11 48 -7z m279 -136 c16 -16 15 -80
-1 -103 -23 -30 -37 -8 -37 56 0 60 11 74 38 47z m-7788 -447 c0 -28 -1 -29
-39 -24 -23 3 -41 1 -45 -6 -5 -7 6 -11 35 -11 47 0 45 10 13 -108 l-17 -63
-40 3 c-25 1 -42 -2 -45 -10 -2 -8 9 -12 37 -12 34 0 41 -3 41 -20 0 -17 -7
-20 -44 -20 -25 0 -48 5 -51 10 -3 6 -19 10 -36 10 -26 0 -29 3 -28 33 0 17 8
77 18 132 l17 100 55 6 c30 3 71 6 92 7 35 2 37 0 37 -27z m7959 -222 c20 -57
12 -139 -13 -139 -21 0 -56 136 -41 160 13 22 43 10 54 -21z m-8061 -69 c18 0
22 -6 22 -30 0 -28 -3 -30 -35 -30 -19 0 -35 -4 -35 -10 0 -5 14 -10 30 -10
25 0 30 -4 30 -24 0 -44 -10 -56 -46 -56 -30 0 -34 -3 -34 -25 0 -21 5 -25 30
-25 l31 0 -3 -57 c-3 -57 -3 -58 -35 -61 -18 -2 -33 1 -33 7 0 5 -17 11 -37
13 l-37 3 3 70 c3 96 5 102 41 97 28 -4 31 -1 30 26 -1 4 -12 6 -25 4 -32 -4
-39 15 -30 74 l7 47 51 -7 c29 -3 62 -6 75 -6z m8704 -35 c4 -5 8 -34 8 -62
l0 -53 -35 0 c-24 0 -39 6 -47 19 -9 15 -16 17 -31 9 -10 -5 -20 -8 -22 -6 -6
7 -12 98 -6 103 9 10 125 1 133 -10z m22 -187 c3 -29 6 -74 6 -100 0 -46 -1
-48 -29 -48 -42 0 -61 9 -61 30 0 23 -37 16 -43 -9 -5 -21 -20 110 -15 135 2
13 13 20 36 22 17 2 32 7 32 13 0 5 15 9 34 9 33 0 33 -1 40 -52z m-955 -150
c-1 -32 -23 -91 -36 -95 -11 -4 -23 27 -23 60 0 18 34 57 50 57 6 0 10 -10 9
-22z m-7861 -41 c3 -43 5 -46 35 -49 l32 -3 3 -117 3 -118 -30 0 c-36 0 -43
-9 -35 -47 5 -26 9 -28 40 -25 l34 4 0 -46 c0 -44 -1 -46 -30 -46 -16 0 -33
-6 -37 -12 -10 -15 -55 -17 -65 -3 -3 6 -8 51 -9 100 -3 86 -3 90 19 93 20 3
22 9 21 55 -1 29 -4 40 -6 26 -2 -16 -12 -29 -24 -32 -18 -5 -19 1 -19 131 l0
137 32 -1 c32 -1 33 -2 36 -47z m8769 -109 c-2 -13 -4 -3 -4 22 0 25 2 35 4
23 2 -13 2 -33 0 -45z m50 0 c-2 -13 -4 -3 -4 22 0 25 2 35 4 23 2 -13 2 -33
0 -45z m3 -175 c0 -16 -3 -57 -6 -93 l-6 -65 -34 0 c-21 0 -34 5 -34 13 0 7
-14 12 -35 12 -32 0 -35 3 -35 29 0 15 3 49 6 74 6 42 9 45 26 36 14 -7 22 -6
34 6 8 8 31 15 50 15 30 0 34 -3 34 -27z m-4583 -29 c-3 -3 -12 -4 -19 -1 -8
3 -5 6 6 6 11 1 17 -2 13 -5z m4563 -198 c0 -83 -3 -86 -75 -86 -35 0 -66 3
-68 8 -3 4 -3 29 0 55 5 42 8 48 27 45 11 -2 30 5 40 14 11 10 32 18 48 18 27
0 28 -1 28 -54z m-8776 16 c3 -5 18 -7 34 -4 32 4 42 -13 42 -74 0 -32 0 -32
-66 -39 -36 -4 -68 -4 -71 -2 -2 3 -7 33 -10 66 l-6 61 36 0 c20 0 38 -4 41
-8z m8303 -14 c-3 -8 -6 -5 -6 6 -1 11 2 17 5 13 3 -3 4 -12 1 -19z m-26 -83
c-10 -28 -24 -63 -30 -80 -12 -28 -46 -129 -99 -295 -12 -36 -28 -83 -36 -105
-83 -225 -145 -420 -181 -575 -16 -67 -24 -81 -70 -127 -82 -83 -111 -66 -55
31 24 43 120 268 120 282 0 2 -4 4 -9 4 -5 0 -28 -37 -51 -82 -54 -105 -146
-248 -160 -248 -5 0 -10 2 -10 5 0 8 42 87 90 170 23 39 64 117 92 175 214
444 273 570 318 680 76 185 92 221 96 217 1 -1 -5 -25 -15 -52z m481 -75 c-2
-25 -5 -47 -7 -48 -2 -2 -33 -1 -69 3 l-66 7 0 37 c0 21 3 40 6 44 4 3 36 5
73 4 l66 -2 -3 -45z m-8669 -22 c3 -24 5 -43 4 -44 -1 -2 -34 -4 -72 -6 l-70
-3 -3 48 -3 47 69 0 69 0 6 -42z m5873 7 c19 -4 32 -20 52 -63 23 -48 27 -70
27 -142 0 -76 -4 -92 -33 -148 -40 -78 -113 -192 -160 -252 -39 -49 -188 -200
-197 -200 -4 0 -21 -11 -39 -25 -18 -14 -37 -25 -42 -25 -11 0 -34 -47 -26
-55 3 -3 14 -5 26 -5 19 0 19 0 1 -14 -18 -13 -17 -14 10 -9 26 4 24 1 -15
-19 -25 -13 -47 -25 -50 -28 -3 -3 -25 -14 -50 -24 -25 -10 -59 -25 -77 -32
-17 -8 -42 -14 -55 -13 l-23 1 25 8 25 8 -25 1 c-36 1 -57 -14 -33 -23 13 -6
1 -13 -47 -28 -36 -11 -73 -24 -83 -29 -10 -6 -41 -13 -68 -16 -27 -3 -49 -9
-49 -13 0 -6 -42 -16 -105 -24 -11 -1 -27 -5 -35 -8 -8 -4 -35 -9 -60 -12 -25
-2 -74 -10 -110 -16 -38 -7 -164 -12 -300 -12 -195 1 -252 4 -335 21 -235 47
-305 75 -436 172 -47 34 -76 65 -89 92 -21 44 -28 88 -9 54 6 -9 14 -15 20
-12 5 4 12 0 15 -9 3 -8 12 -17 19 -20 8 -3 3 11 -11 31 -36 53 -57 136 -52
203 6 78 48 160 122 234 123 125 248 170 471 169 148 0 235 -11 349 -46 86
-26 71 -34 -26 -13 -128 27 -330 40 -401 27 -210 -40 -332 -124 -390 -269 -14
-35 -19 -74 -20 -157 -1 -104 0 -113 27 -160 35 -60 41 -68 31 -36 l-7 23 31
-18 c17 -10 31 -21 31 -25 0 -4 8 -10 17 -13 15 -6 15 -4 -2 14 -21 24 -16 32
22 34 l28 1 -4 73 c-3 68 -1 79 33 148 66 133 173 215 297 230 129 15 324 -54
455 -161 88 -73 204 -200 204 -225 0 -24 31 -90 42 -90 4 0 8 10 8 23 0 33 38
201 60 268 35 102 117 266 181 361 62 91 225 268 248 268 25 0 8 -33 -49 -96
-33 -37 -59 -68 -57 -70 2 -2 37 14 78 35 181 96 320 143 469 159 72 9 91 8
146 -3z m2732 -41 c64 -8 64 -4 17 -230 -4 -17 -10 -19 -40 -16 -20 2 -35 0
-35 -6 0 -6 12 -10 28 -9 25 2 27 0 26 -36 -1 -22 -6 -55 -12 -75 -6 -21 -18
-64 -27 -97 -40 -150 -78 -269 -104 -330 -5 -11 -30 -76 -57 -145 -60 -155
-200 -436 -294 -594 -39 -65 -75 -123 -80 -130 -6 -6 -31 -42 -56 -81 -26 -38
-50 -72 -53 -75 -4 -3 -17 -21 -28 -40 -12 -19 -30 -44 -41 -55 -10 -11 -23
-28 -28 -36 -10 -18 -65 -88 -104 -132 -14 -15 -41 -48 -60 -72 -19 -24 -41
-44 -47 -44 -7 -1 -13 -8 -13 -16 0 -17 -344 -365 -360 -365 -6 0 -10 22 -10
48 0 36 5 54 20 67 14 12 20 31 20 58 0 51 22 77 67 77 34 0 83 33 70 47 -4 3
-7 2 -7 -4 0 -6 -6 -13 -14 -16 -9 -4 -13 2 -13 19 0 16 21 47 61 91 33 36 67
74 74 84 7 11 22 19 32 19 12 0 17 5 14 13 -2 7 15 34 39 60 24 26 42 49 40
50 -1 2 13 21 32 41 19 21 35 41 35 45 0 3 9 17 20 31 33 41 74 96 90 121 8
12 22 30 32 40 9 9 19 25 22 36 3 10 17 30 30 44 13 14 27 35 30 47 4 12 11
22 16 22 4 0 11 11 14 25 4 14 11 25 16 25 6 0 10 4 10 10 0 5 13 31 29 58 53
90 88 156 145 272 31 63 61 123 66 132 6 10 10 22 10 27 0 5 14 39 30 74 17
36 30 71 30 79 0 8 4 18 9 23 5 6 14 27 21 49 12 36 14 38 46 33 19 -3 34 -2
34 4 0 5 -13 9 -30 9 -16 0 -30 3 -30 6 0 4 12 44 28 90 27 83 27 84 62 85
l35 2 -33 4 c-30 4 -33 7 -27 26 4 12 9 34 12 50 5 23 10 27 42 29 l36 1 -33
4 c-25 3 -32 8 -28 20 3 8 6 19 6 24 0 5 17 10 38 11 l37 1 -33 4 c-27 4 -33
8 -30 26 2 18 11 23 41 25 40 3 42 22 1 22 -19 0 -24 5 -24 25 0 22 5 25 38
27 36 1 36 1 5 5 -24 3 -33 9 -33 23 0 38 9 46 52 42 28 -3 39 -1 34 7 -4 6
-21 11 -37 11 -28 0 -30 2 -27 33 3 30 5 32 36 29 17 -2 32 1 32 6 0 5 -11 7
-24 5 -30 -6 -39 8 -30 52 7 38 8 39 92 29z m-1046 -41 c9 -10 19 -28 23 -41
11 -36 -21 -127 -60 -168 -32 -34 -37 -36 -51 -22 -14 14 -14 19 1 48 17 32
17 96 1 131 -9 20 29 69 53 69 10 0 25 -8 33 -17z m-7544 -25 c3 -25 0 -28
-27 -28 -16 0 -33 -4 -36 -10 -4 -6 10 -10 33 -10 32 0 41 -4 45 -22 8 -30 1
-38 -34 -38 -18 0 -28 -4 -24 -10 3 -5 21 -10 39 -10 29 0 34 -4 39 -27 3 -16
8 -38 12 -50 7 -21 4 -23 -24 -23 -17 0 -31 -4 -31 -10 0 -5 16 -10 35 -10 30
0 35 -3 35 -24 0 -19 -6 -26 -27 -29 -22 -3 -20 -4 6 -3 19 0 36 -4 37 -9 1
-6 16 -54 33 -109 17 -54 31 -105 31 -112 0 -7 -15 -14 -37 -17 l-38 -4 43 -1
c24 -1 44 -7 46 -14 2 -7 18 -59 36 -116 17 -57 29 -106 26 -109 -3 -3 0 -11
8 -17 7 -6 28 -49 46 -96 18 -47 59 -140 91 -207 33 -66 59 -126 59 -131 0 -6
3 -12 8 -14 8 -4 35 -48 60 -98 9 -19 20 -36 25 -38 4 -2 7 -7 7 -12 0 -10 90
-155 136 -220 19 -26 34 -52 34 -59 0 -6 4 -11 8 -11 11 0 82 -103 82 -118 0
-7 6 -12 13 -12 8 0 20 -12 28 -26 8 -15 28 -43 46 -62 18 -19 30 -39 27 -44
-3 -4 1 -8 8 -8 7 0 29 -22 48 -47 19 -26 113 -126 209 -222 163 -165 174
-178 175 -215 1 -27 7 -42 22 -53 21 -13 21 -13 14 26 -8 45 -5 45 49 -1 25
-22 31 -34 31 -67 0 -22 5 -43 11 -47 8 -5 10 6 7 34 -3 34 -1 39 13 32 29
-16 43 -42 40 -76 -4 -51 13 -67 19 -17 5 41 5 41 26 24 18 -14 23 -33 29
-110 l7 -93 -88 65 c-87 64 -89 66 -95 113 -6 46 -6 47 -7 11 -1 -21 -6 -37
-11 -35 -9 3 -86 67 -158 132 -41 36 -43 42 -43 92 0 33 -4 54 -11 54 -7 0
-10 -17 -8 -44 3 -37 2 -43 -11 -36 -36 19 -382 393 -414 448 -4 8 -16 22 -25
32 -62 66 -351 479 -351 503 0 3 -19 38 -43 79 -54 91 -143 274 -192 393 -20
50 -41 99 -46 110 -70 162 -187 552 -205 683 l-7 52 34 1 c34 2 34 2 -6 8
l-39 6 -12 75 c-6 41 -9 79 -7 83 3 4 35 7 71 5 65 -3 67 -4 70 -30z m7895
-155 c-1 -35 -22 -116 -66 -257 -22 -71 -35 -55 -39 46 -3 98 -1 121 12 113
12 -8 30 19 33 51 10 87 64 129 60 47z m-1633 -446 c0 -8 -9 -24 -20 -37 -25
-28 -27 -8 -2 25 20 28 22 29 22 12z m-2603 -89 c13 -29 32 -66 40 -81 18 -35
13 -41 -30 -33 -35 6 -38 12 -62 104 -7 26 2 62 16 62 6 0 22 -24 36 -52z
m3439 7 c15 -15 23 -32 20 -43 -3 -9 -8 -29 -12 -44 -6 -29 -11 -31 -56 -28
-22 1 -32 -6 -49 -34 -23 -40 -33 -40 -43 0 -10 38 11 94 52 137 42 44 54 45
88 12z m-886 12 c0 -2 -11 -18 -25 -37 -14 -19 -25 -29 -25 -24 0 5 10 22 22
37 20 25 28 32 28 24z m-707 -111 c4 -10 0 -12 -14 -9 -22 6 -26 23 -5 23 8 0
16 -6 19 -14z m35 -23 c-10 -2 -18 -9 -18 -15 0 -6 -3 -9 -6 -5 -10 10 6 27
24 26 15 -1 15 -2 0 -6z m449 -106 c-15 -12 -27 -29 -27 -36 0 -7 -6 -11 -14
-8 -8 3 -20 -1 -26 -9 -7 -8 -18 -14 -25 -14 -7 0 -15 -7 -19 -15 -3 -8 -13
-15 -22 -15 -13 0 -11 5 9 20 14 11 29 20 34 20 4 1 28 19 53 40 25 22 49 40
54 40 5 0 -3 -10 -17 -23z m-2504 -83 c29 -14 93 -50 142 -80 86 -51 154 -80
240 -103 85 -22 172 -41 196 -42 l24 0 -25 -11 c-107 -44 -157 -82 -172 -130
-6 -18 -7 -15 -4 10 2 22 -1 29 -8 22 -5 -5 -18 -10 -29 -10 -17 0 -18 -6 -10
-72 14 -123 10 -158 -16 -179 -14 -11 -39 -19 -62 -19 -21 0 -39 -2 -39 -5 0
-10 75 -75 93 -81 22 -7 46 12 64 51 l13 30 -2 -34 c-4 -48 -45 -79 -79 -59
-27 15 -103 82 -170 149 -97 97 -127 216 -80 316 37 79 26 111 -66 200 -41 40
-72 73 -68 73 3 0 29 -12 58 -26z m2342 -34 c-27 -12 -43 -12 -25 0 8 5 22 9
30 9 10 0 8 -3 -5 -9z m-38 -26 c-3 -3 -12 -4 -19 -1 -8 3 -5 6 6 6 11 1 17
-2 13 -5z m-47 -19 c-7 -8 -17 -15 -22 -15 -5 0 -16 -7 -24 -15 -9 -8 -25 -14
-37 -14 -21 1 -21 2 -2 6 11 3 22 9 25 13 4 6 56 35 69 39 2 1 -2 -6 -9 -14z
m-193 -31 c-3 -3 -12 -4 -19 -1 -8 3 -5 6 6 6 11 1 17 -2 13 -5z m90 -30 c-3
-3 -12 -4 -19 -1 -8 3 -5 6 6 6 11 1 17 -2 13 -5z m-37 -14 c0 -5 -4 -10 -9
-10 -5 0 -18 -3 -28 -6 -16 -6 -16 -5 2 9 23 19 35 21 35 7z m-163 -6 c-3 -3
-12 -4 -19 -1 -8 3 -5 6 6 6 11 1 17 -2 13 -5z m-20 -70 c-3 -3 -12 -4 -19 -1
-8 3 -5 6 6 6 11 1 17 -2 13 -5z m471 -7 c24 -28 -1 -299 -35 -379 -31 -75
-152 -101 -210 -46 -29 28 -29 38 1 38 14 0 39 12 58 27 18 15 35 29 38 31 3
2 6 17 6 33 3 55 4 59 19 59 13 0 13 3 3 20 -7 11 -15 20 -18 20 -10 0 -64
-83 -84 -127 -13 -30 -25 -43 -39 -43 -31 0 -57 29 -57 64 0 35 27 112 50 140
53 66 79 90 138 130 68 46 111 57 130 33z m-521 -13 c-3 -3 -12 -4 -19 -1 -8
3 -5 6 6 6 11 1 17 -2 13 -5z m1593 -193 c0 -24 -16 -44 -29 -37 -12 8 -15 69
-4 80 9 9 33 -23 33 -43z m-5070 -7 c0 -8 -5 -12 -10 -9 -6 4 -8 11 -5 16 9
14 15 11 15 -7z m-87 -51 c-7 -2 -19 -2 -25 0 -7 3 -2 5 12 5 14 0 19 -2 13
-5z m2084 -60 c-3 -10 -5 -4 -5 12 0 17 2 24 5 18 2 -7 2 -21 0 -30z m3648
-33 c-14 -22 -25 -42 -25 -45 0 -7 -95 -140 -159 -220 -68 -86 -193 -217 -286
-298 -46 -40 -27 -18 54 63 136 138 245 269 358 433 73 105 107 145 58 67z
m-2409 -132 c52 -41 63 -60 64 -111 0 -50 -16 -84 -58 -124 -19 -19 -34 -23
-89 -23 -152 0 -225 100 -148 207 42 58 69 72 141 73 49 0 67 -5 90 -22z
m-1446 -21 c0 -4 -6 -2 -14 5 -8 7 -12 17 -9 22 5 8 23 -12 23 -27z m50 -38
c0 -6 -7 -6 -20 1 -11 6 -20 15 -20 21 0 6 7 6 20 -1 11 -6 20 -15 20 -21z
m-1451 -184 c34 -17 51 -59 51 -126 0 -40 -5 -55 -32 -84 -35 -40 -95 -75
-130 -75 -60 0 -128 81 -128 152 0 41 40 102 83 129 39 23 116 25 156 4z m273
-195 c39 -83 43 -88 59 -74 16 14 19 14 32 -8 8 -12 23 -50 32 -83 9 -33 26
-78 37 -100 41 -80 201 -263 321 -366 84 -72 117 -113 117 -146 0 -25 -26 -10
-98 57 -39 36 -77 70 -84 75 -11 9 -78 32 -193 66 -85 25 -147 121 -200 307
-18 64 -51 165 -73 223 -22 58 -43 120 -47 138 l-7 33 31 -17 c24 -12 41 -37
73 -105z m-257 -305 l40 -37 -42 32 c-23 17 -64 52 -90 77 l-48 45 50 -40 c28
-22 68 -57 90 -77z m4895 86 c-13 -25 -13 -61 0 -61 6 0 10 -23 10 -50 0 -46
-3 -53 -41 -88 -23 -20 -45 -38 -50 -40 -4 -2 -10 14 -12 35 -3 36 -4 36 -5
-8 -2 -40 -7 -50 -36 -73 l-35 -26 -4 37 c-4 37 -4 37 -5 -7 -2 -38 -7 -48
-35 -68 l-32 -22 -6 37 -6 38 -2 -44 c-1 -29 -7 -48 -18 -57 -28 -21 -33 -17
-33 23 0 50 -13 33 -14 -18 -1 -31 -6 -45 -21 -53 -11 -6 -22 -14 -25 -17 -6
-7 -170 -119 -174 -119 -2 0 -31 -18 -64 -40 -33 -22 -62 -40 -65 -40 -3 0 -8
19 -10 43 l-4 42 -1 -47 c-2 -47 -2 -47 -64 -82 l-63 -35 -6 42 -6 42 -1 -49
c-2 -38 -5 -47 -17 -42 -9 3 -15 0 -15 -9 0 -7 -13 -16 -30 -20 -16 -4 -30
-11 -30 -16 0 -5 -7 -9 -14 -9 -11 0 -16 14 -19 48 l-3 47 -2 -52 c-3 -86 -22
-74 -22 15 0 76 1 79 28 93 15 7 48 26 73 41 25 16 49 28 53 28 3 0 6 -14 6
-31 0 -19 4 -28 11 -24 6 4 9 20 7 36 -2 24 3 34 30 50 l32 21 0 -31 c0 -17 5
-31 11 -31 7 0 10 14 7 35 -2 19 0 35 5 35 5 0 15 7 23 15 22 22 32 19 37 -12
3 -23 4 -21 6 10 0 24 6 37 15 37 8 0 16 3 18 8 3 6 98 74 135 95 9 6 10 -2 6
-27 -3 -19 -1 -36 6 -40 12 -8 14 2 11 53 -2 29 11 50 30 51 4 0 4 -15 2 -34
-2 -18 1 -37 7 -40 7 -5 11 9 11 41 1 45 3 50 49 86 27 20 52 37 56 37 4 0 5
-18 2 -40 -5 -36 -3 -39 10 -29 10 9 14 26 11 52 -3 34 0 41 26 60 l29 21 -5
-42 c-4 -23 -3 -42 2 -42 18 0 32 32 28 66 -4 30 1 39 26 61 l31 26 3 -37 c3
-31 6 -35 18 -25 8 6 14 30 15 53 0 37 5 45 56 89 63 53 68 55 53 28z m-1270
-35 c0 -18 -8 -27 -31 -35 -68 -23 -103 -5 -73 38 12 16 26 21 60 21 40 0 44
-2 44 -24z m-1063 -113 c16 -21 17 -47 1 -37 -8 5 -9 2 -5 -11 11 -27 -11 -45
-58 -45 -34 0 -44 5 -54 24 -15 27 -7 64 18 84 21 16 82 7 98 -15z m-3219
-125 c7 -7 12 -34 12 -61 0 -41 2 -47 14 -38 7 6 11 22 8 36 -3 17 0 25 10 25
23 0 38 -22 40 -59 l1 -36 4 33 c4 28 7 31 19 21 8 -6 14 -27 14 -45 0 -19 5
-34 10 -34 6 0 10 12 10 26 0 40 25 23 28 -19 2 -20 7 -37 11 -37 5 0 6 11 3
25 -5 27 -3 28 22 19 10 -4 17 -20 17 -43 2 -30 3 -31 6 -8 5 31 15 34 37 12
8 -8 19 -15 25 -15 6 0 12 -17 12 -37 2 -31 3 -33 6 -10 5 31 15 34 39 10 10
-10 20 -18 23 -18 3 0 4 -14 2 -31 -1 -18 2 -35 8 -39 7 -4 11 7 11 30 l0 37
33 -22 c17 -12 40 -24 50 -27 15 -5 17 -16 15 -82 -3 -88 -20 -101 -29 -21
l-5 55 -5 -48 -4 -47 -45 25 c-25 14 -53 28 -62 32 -13 4 -18 17 -20 52 -1 43
-2 44 -5 9 -6 -53 -23 -47 -23 7 0 25 -4 45 -10 45 -5 0 -7 -16 -5 -35 3 -19
3 -35 1 -35 -16 0 -36 14 -36 26 0 8 -6 11 -15 8 -12 -5 -15 3 -15 40 0 27 -5
46 -11 46 -7 0 -10 -14 -7 -35 2 -19 3 -35 2 -35 -23 0 -34 18 -36 59 -1 43
-2 44 -5 9 -4 -40 -13 -46 -35 -25 -17 14 -45 33 -75 49 -18 9 -23 21 -25 52
-1 37 -2 38 -5 9 -5 -35 -12 -40 -31 -21 -13 13 -17 178 -4 178 4 0 13 -5 20
-12z m522 -404 c0 -61 -3 -74 -16 -74 -11 0 -14 5 -10 16 3 9 6 45 6 80 0 41
4 63 10 59 6 -3 10 -40 10 -81z m30 -15 c0 -53 -4 -79 -11 -77 -6 2 -10 7 -10
11 1 4 1 39 1 77 0 40 4 70 10 70 6 0 10 -34 10 -81z m70 36 c46 -23 50 -28
50 -60 0 -26 4 -35 16 -35 13 0 15 7 10 30 l-6 30 41 -21 41 -21 -7 -61 c-3
-34 -8 -64 -11 -66 -2 -3 -32 7 -66 21 -62 25 -63 26 -60 62 2 21 -1 36 -7 36
-6 0 -11 -13 -11 -30 0 -44 -20 -37 -21 8 -2 30 -3 32 -6 10 -2 -16 -9 -28
-14 -28 -5 0 -8 32 -7 75 2 41 4 75 6 75 1 0 25 -11 52 -25z m3940 -95 c0 -44
-4 -80 -9 -80 -9 0 -20 148 -12 156 15 15 21 -6 21 -76z m-30 -14 c0 -41 -4
-78 -10 -81 -6 -4 -10 10 -10 35 0 25 -4 39 -10 35 -5 -3 -10 -23 -10 -44 0
-31 -5 -40 -26 -50 -32 -14 -43 -8 -36 24 3 16 0 25 -8 25 -9 0 -11 -11 -7
-34 5 -31 3 -35 -26 -46 -18 -7 -47 -19 -65 -27 -18 -8 -40 -12 -48 -9 -8 3
-14 -1 -14 -9 0 -8 -4 -15 -10 -15 -5 0 -10 14 -10 30 0 17 -4 30 -10 30 -5 0
-10 -16 -10 -35 0 -24 -5 -35 -15 -35 -10 0 -15 10 -15 31 0 19 -4 28 -11 24
-6 -4 -9 -21 -7 -38 2 -24 -1 -33 -14 -35 -14 -3 -18 4 -19 30 -2 32 -2 32 -8
-7 -10 -65 -34 -52 -45 23 -9 66 -6 75 31 86 18 6 22 2 25 -20 5 -46 28 -41
28 5 0 23 5 41 10 41 6 0 10 -13 10 -30 0 -16 5 -30 10 -30 6 0 10 16 10 35 0
29 5 37 26 45 35 14 34 14 34 -20 0 -16 5 -30 11 -30 7 0 10 14 7 35 -2 19 -1
35 3 35 4 0 9 -12 11 -27 4 -41 23 -34 26 10 4 43 19 49 25 10 4 -27 4 -26 6
4 1 42 21 54 21 14 0 -45 20 -38 21 7 2 33 2 34 6 7 3 -16 9 -34 14 -39 10
-11 12 1 9 46 -1 22 6 31 37 47 60 32 63 30 63 -53z m-3730 -11 c0 -19 4 -35
10 -35 5 0 7 7 4 15 -11 26 3 47 23 35 10 -5 30 -14 46 -20 22 -8 27 -15 27
-45 0 -19 5 -35 10 -35 6 0 10 14 10 30 0 17 5 30 10 30 6 0 10 -5 10 -10 0
-5 3 -9 8 -9 23 4 33 -4 32 -23 -4 -40 0 -58 10 -58 6 0 10 16 10 36 0 19 4
33 9 30 4 -3 6 -17 3 -31 -2 -15 0 -25 8 -25 7 0 9 8 5 20 -5 16 -2 20 14 20
19 0 21 -6 21 -70 0 -38 -1 -70 -3 -70 -1 0 -27 9 -57 19 -53 19 -54 20 -54
58 1 33 0 34 -3 6 -5 -36 -9 -38 -47 -23 -21 8 -26 17 -28 47 -1 37 -1 37 -5
6 -5 -38 -13 -39 -69 -14 -37 17 -41 22 -37 47 3 16 7 36 10 44 3 8 5 25 4 38
-1 12 2 22 8 22 6 0 11 -16 11 -35z m315 -161 c8 -69 6 -78 -16 -69 -10 4 -14
23 -13 68 1 75 2 80 13 72 5 -3 13 -35 16 -71z m43 25 c1 -13 5 -43 8 -66 5
-38 4 -43 -13 -43 -17 0 -19 8 -21 71 -1 52 1 70 11 66 6 -2 13 -15 15 -28z
m2916 -15 c10 -79 8 -94 -14 -94 -18 0 -20 7 -20 70 0 52 3 70 14 70 8 0 16
-17 20 -46z m-49 -34 c9 -76 9 -74 -9 -78 -11 -2 -16 12 -21 62 -7 63 -2 91
15 81 4 -3 11 -32 15 -65z m-2824 33 c2 -24 2 -25 6 -5 4 22 43 33 43 11 0 -5
4 -8 9 -5 19 12 41 -7 41 -35 0 -16 5 -29 10 -29 6 0 10 12 10 26 0 19 4 25
18 22 12 -2 16 -11 14 -27 -2 -13 2 -27 9 -31 7 -5 12 -25 11 -46 -2 -43 -4
-46 -24 -39 -8 3 -13 18 -12 38 1 27 1 28 -3 4 -3 -22 -9 -28 -26 -25 -18 2
-23 11 -25 41 -3 40 -22 42 -22 1 0 -42 -30 -30 -32 14 l-1 37 -4 -33 c-3 -25
-9 -32 -21 -30 -14 3 -18 17 -20 71 -2 42 1 67 8 67 5 0 11 -12 11 -27z m2769
-12 c0 -17 5 -33 10 -36 16 -10 12 -72 -5 -78 -8 -4 -16 -3 -19 1 -8 14 -18
121 -11 131 12 20 25 11 25 -18z m-40 -18 c0 -16 2 -44 6 -64 4 -24 2 -39 -6
-44 -19 -12 -28 6 -36 73 -6 59 -6 62 15 62 17 0 21 -6 21 -27z m-52 -55 c-2
-57 -6 -73 -19 -76 -13 -2 -17 10 -23 64 -7 68 -1 83 32 84 10 0 12 -18 10
-72z m-2468 22 c0 -16 5 -30 10 -30 6 0 10 9 10 19 0 41 36 33 41 -9 5 -30 23
-30 27 0 5 29 26 19 30 -13 4 -31 32 -37 32 -7 0 13 7 20 18 20 13 0 18 -8 17
-27 0 -33 22 -42 27 -11 5 34 32 29 38 -7 6 -33 23 -37 28 -5 2 14 11 20 28
20 20 0 24 -5 24 -31 0 -20 4 -29 13 -26 6 2 12 11 12 20 0 23 11 30 34 22 26
-8 31 -65 6 -65 -10 0 -15 -10 -15 -31 0 -27 -3 -30 -27 -27 -24 3 -28 8 -31
41 -4 44 -22 50 -22 8 0 -34 -8 -42 -36 -35 -15 4 -19 13 -18 37 1 28 1 28 -3
4 -4 -25 -8 -28 -36 -25 -29 3 -32 6 -33 35 0 18 -4 32 -9 30 -5 -1 -8 -12 -7
-24 3 -19 -1 -23 -22 -23 -23 0 -26 4 -26 35 0 19 -4 35 -10 35 -5 0 -10 -14
-10 -31 0 -26 -3 -30 -22 -27 -18 2 -24 11 -29 43 -6 38 -6 38 -8 8 -1 -28 -5
-33 -26 -33 -24 0 -25 2 -25 70 0 40 4 70 10 70 6 0 10 -13 10 -30z m2400 1
c0 -17 5 -33 10 -36 6 -3 10 -22 10 -41 0 -31 -3 -34 -29 -34 -17 0 -33 -4
-36 -10 -3 -5 -18 -10 -32 -10 l-26 0 7 67 c4 37 12 71 19 75 24 15 36 8 40
-24 4 -32 4 -32 5 5 2 46 32 54 32 8z m-110 -70 c0 -61 -2 -69 -21 -74 -11 -3
-22 0 -25 7 -4 9 1 109 5 134 1 1 10 2 21 2 18 0 20 -7 20 -69z m-75 -11 c4
-33 8 -63 8 -67 1 -5 -7 -9 -19 -11 -18 -3 -22 4 -28 44 -10 78 -8 94 13 94
16 0 20 -10 26 -60z m-64 18 c1 -18 2 -49 3 -70 2 -32 0 -37 -23 -41 -14 -3
-27 -4 -28 -3 -9 8 -7 137 2 140 31 13 45 5 46 -26z m-80 -23 c0 -19 1 -50 2
-67 1 -31 -2 -33 -36 -36 -36 -3 -37 -2 -37 32 0 19 6 41 13 48 8 6 11 22 9
35 -4 19 0 23 22 23 23 0 26 -4 27 -35z m-83 -45 l-3 -70 -33 -6 c-19 -4 -38
-2 -44 4 -13 13 -1 82 14 82 6 0 8 11 6 25 -5 24 4 31 45 34 15 1 17 -7 15
-69z m-1478 19 c0 -24 4 -30 17 -27 10 2 18 12 18 23 0 13 6 20 18 19 55 -2
57 -4 57 -34 0 -25 4 -30 25 -30 20 0 25 5 25 25 0 21 5 25 28 25 53 0 69 -10
64 -36 -3 -17 -11 -24 -28 -24 -21 0 -24 -5 -24 -35 0 -33 -2 -35 -34 -35 -54
0 -62 6 -58 45 4 30 1 35 -17 35 -17 0 -21 -6 -21 -30 0 -28 -2 -30 -40 -30
l-40 0 -2 43 -1 42 -4 -37 c-4 -31 -8 -38 -26 -38 -52 0 -63 9 -59 46 3 25 9
34 23 34 14 0 19 7 19 25 0 21 5 25 30 25 27 0 30 -3 30 -31z m1375 -35 c4
-36 5 -67 3 -69 -1 -2 -23 -5 -48 -6 -44 -4 -45 -3 -48 27 -2 19 3 38 12 47 9
9 16 27 16 41 0 22 5 26 29 26 28 0 29 -2 36 -66z m-102 16 c-2 -19 -3 -49 -3
-66 0 -34 -16 -44 -77 -44 -32 0 -33 2 -33 40 0 26 6 42 16 48 11 6 15 17 12
30 -5 17 -1 22 26 25 56 7 61 4 59 -33z m-143 -15 c0 -22 -5 -35 -13 -35 -9 0
-12 -11 -9 -35 4 -32 2 -35 -20 -35 -14 0 -53 -3 -87 -6 l-62 -7 3 44 3 44 49
3 c45 3 48 5 44 27 -5 26 4 32 60 34 30 1 32 -1 32 -34z m-606 -15 l-6 -30
118 0 c130 0 150 6 139 39 -6 20 -3 21 74 21 73 0 81 -2 81 -19 0 -28 -27 -51
-59 -51 -25 0 -28 -3 -23 -25 2 -14 9 -26 16 -26 35 -4 -104 -17 -184 -17 -81
0 -220 13 -182 17 6 0 12 14 12 31 0 29 -2 30 -45 30 l-45 0 0 -36 0 -37 -72
8 c-40 3 -75 8 -79 10 -3 2 -4 18 -1 35 3 21 10 30 23 31 11 1 25 2 32 3 6 0
13 11 15 24 3 21 8 22 97 22 l95 0 -6 -30z"/>
<path d="M6401 9314 c0 -11 3 -14 6 -6 3 7 2 16 -1 19 -3 4 -6 -2 -5 -13z"/>
<path d="M5016 9058 c-15 -21 -9 -49 15 -63 18 -12 56 4 62 27 14 52 -46 80
-77 36z"/>
<path d="M3205 8866 c-71 -43 -115 -129 -94 -184 13 -34 26 -42 70 -42 94 0
191 55 230 131 44 87 20 119 -89 119 -63 0 -84 -4 -117 -24z m78 -57 c-23 -40
-69 -79 -93 -79 -27 0 -46 28 -33 48 18 30 75 62 110 62 l34 0 -18 -31z"/>
<path d="M5780 8592 c-265 -75 -438 -272 -519 -592 -29 -112 -53 -285 -49
-350 3 -43 4 -42 17 30 54 304 119 478 227 612 61 76 111 114 217 163 185 88
347 96 577 30 121 -35 149 -45 198 -67 45 -20 58 -19 49 4 -7 19 -194 111
-287 141 -25 8 -61 20 -80 27 -19 7 -91 14 -160 16 -99 3 -138 0 -190 -14z"/>
<path d="M6596 8341 c-8 -12 14 -29 159 -125 72 -47 145 -97 163 -112 17 -14
32 -21 32 -16 0 6 -15 21 -32 33 -18 12 -51 41 -73 64 -23 23 -77 65 -120 92
-107 67 -123 75 -129 64z"/>
<path d="M5867 8320 c-37 -10 -92 -33 -122 -51 -81 -49 -195 -149 -216 -189
-56 -110 -118 -250 -124 -280 -4 -19 -11 -48 -16 -65 -34 -115 -43 -216 -43
-450 0 -246 3 -280 51 -455 79 -292 261 -643 433 -835 152 -171 276 -255 480
-325 85 -30 107 -33 210 -34 63 0 97 -3 75 -6 -22 -3 -49 -11 -60 -18 -18 -10
-15 -11 20 -11 69 -1 229 33 322 68 76 28 212 114 259 163 97 103 187 253 212
358 53 216 87 673 62 845 -36 254 -138 488 -319 735 -183 250 -543 486 -844
554 -95 22 -291 20 -380 -4z m35 -241 c74 -15 201 -77 276 -134 127 -96 207
-227 237 -390 46 -243 -56 -608 -217 -781 -71 -75 -137 -108 -220 -108 -156 1
-311 168 -377 406 -41 145 -71 313 -82 453 -15 186 -9 250 30 328 36 73 110
174 147 201 47 34 119 43 206 25z m-429 -696 c10 -349 70 -599 208 -875 136
-272 310 -490 501 -631 89 -65 263 -127 361 -127 18 0 38 -4 46 -9 26 -17 -57
-24 -130 -12 -180 30 -374 135 -510 278 -240 252 -459 707 -509 1058 -19 134
-4 525 20 525 4 0 10 -93 13 -207z m1195 -356 c80 -75 93 -266 20 -306 -24
-14 -30 -14 -61 1 -52 25 -97 120 -97 205 0 69 19 118 47 126 29 8 66 -3 91
-26z m592 -272 c0 -12 4 -25 10 -31 17 -17 31 -220 20 -295 -17 -119 -59 -279
-91 -347 -50 -103 -204 -241 -299 -266 -24 -7 -24 -6 5 16 152 115 260 281
296 454 16 77 7 108 -36 137 -71 46 -69 104 6 154 49 32 56 48 65 148 4 47 10
71 15 63 5 -7 9 -22 9 -33z m-622 -247 c7 -7 12 -25 12 -40 0 -21 -5 -28 -20
-28 -28 0 -48 44 -30 65 15 18 22 19 38 3z m-617 -215 c26 -81 118 -172 241
-236 51 -27 102 -82 92 -99 -24 -38 -203 73 -291 181 -51 63 -73 110 -73 157
0 45 15 43 31 -3z m1077 -100 c-5 -25 -28 -28 -28 -4 0 12 6 21 16 21 9 0 14
-7 12 -17z"/>
<path d="M2269 8293 l-24 -28 28 24 c25 23 32 31 24 31 -2 0 -14 -12 -28 -27z"/>
<path d="M2219 8253 c-13 -16 -12 -17 4 -4 16 13 21 21 13 21 -2 0 -10 -8 -17
-17z"/>
<path d="M7490 8114 c0 -25 43 -134 61 -150 24 -22 24 -8 -2 60 -19 53 -58
112 -59 90z"/>
<path d="M7020 8004 c0 -9 81 -146 102 -174 l20 -25 -7 28 c-6 21 -4 27 10 27
14 0 13 4 -6 33 -43 63 -119 134 -119 111z"/>
<path d="M5018 7789 c-3 -68 3 -80 26 -47 18 26 21 61 6 89 -18 34 -28 21 -32
-42z"/>
<path d="M2505 7679 c-82 -10 -145 -35 -225 -88 -75 -49 -148 -116 -138 -126
2 -3 40 15 84 40 129 74 194 90 364 90 145 0 207 -9 323 -45 75 -24 76 -6 2
39 -116 70 -282 107 -410 90z"/>
<path d="M3443 7534 c-16 -41 32 -216 62 -228 57 -21 59 46 6 160 -39 82 -56
99 -68 68z"/>
<path d="M2485 7493 c-39 -6 -108 -29 -146 -48 -44 -23 -202 -158 -241 -206
-52 -64 -98 -166 -133 -294 -7 -27 -23 -84 -34 -124 -13 -46 -26 -138 -33
-238 -33 -456 70 -884 297 -1228 129 -196 357 -381 529 -429 111 -32 136 -36
205 -36 51 0 70 -3 69 -12 -2 -9 13 -14 47 -16 28 -1 78 -9 112 -17 65 -16 98
-13 200 21 149 49 280 151 355 277 88 146 107 210 138 462 41 333 18 618 -69
867 -36 105 -98 240 -114 250 -27 16 -29 -13 -5 -59 13 -26 37 -73 53 -103 30
-58 43 -135 26 -160 -19 -28 -42 3 -82 110 -191 511 -517 854 -912 959 -75 20
-210 33 -262 24z m1 -292 c134 -26 242 -89 375 -222 155 -155 187 -227 157
-351 -23 -90 -71 -212 -115 -288 -46 -80 -180 -215 -249 -252 -60 -32 -153
-58 -209 -58 -153 0 -289 185 -339 460 -21 115 -35 395 -22 440 21 73 127 220
178 246 58 30 145 40 224 25z m-457 -557 c-34 -316 52 -752 203 -1033 114
-209 291 -414 447 -515 65 -42 94 -57 186 -92 19 -7 19 -8 -3 -11 -34 -6 -129
24 -210 68 -319 170 -540 532 -627 1024 -30 170 -30 491 1 643 13 66 15 22 3
-84z m1044 -361 c49 -52 72 -119 72 -215 0 -68 -4 -91 -17 -104 -15 -16 -19
-15 -52 5 -47 30 -112 128 -120 184 -8 52 14 119 47 142 30 21 39 19 70 -12z
m47 -528 c15 -18 5 -65 -14 -65 -22 0 -39 28 -32 55 7 28 27 33 46 10z m497
-134 c-6 -142 -23 -207 -83 -321 -38 -72 -109 -156 -153 -180 -28 -15 -27 -12
42 79 54 71 125 212 134 264 4 28 1 34 -26 50 -65 38 -64 81 4 124 44 28 55
46 55 95 0 21 4 26 16 21 15 -5 16 -22 11 -132z m-976 -216 c5 -43 19 -72 54
-120 39 -53 39 -55 5 -44 -28 10 -74 59 -99 106 -12 24 -15 86 -4 97 18 17 38
-1 44 -39z"/>
<path d="M4962 7404 c-29 -29 -33 -37 -21 -45 11 -7 12 -12 1 -26 -7 -10 -21
-37 -32 -59 -17 -35 -18 -47 -9 -75 16 -47 56 -88 108 -111 43 -20 44 -20 70
-1 34 26 50 73 50 153 1 84 -14 137 -49 172 -39 39 -73 37 -118 -8z"/>
<path d="M7966 7371 c-3 -5 14 -19 39 -32 l45 -24 22 23 23 23 -38 -6 c-26 -5
-44 -3 -62 9 -13 9 -26 12 -29 7z"/>
<path d="M4528 7229 c-42 -24 -5 -89 42 -74 29 9 38 55 15 72 -22 15 -34 16
-57 2z"/>
<path d="M3796 7079 c-39 -46 -35 -89 24 -209 11 -24 65 -35 100 -20 58 24 88
112 57 167 -20 36 -106 93 -141 93 -8 0 -26 -14 -40 -31z"/>
<path d="M1683 5942 c-5 -4 -17 -21 -26 -38 -9 -17 -23 -34 -31 -37 -37 -14
30 -107 76 -107 11 0 33 14 50 30 28 28 30 35 26 81 -3 28 -9 54 -14 58 -13
12 -68 21 -81 13z"/>
<path d="M1495 5378 c-44 -38 -68 -83 -91 -169 -23 -87 -23 -324 1 -406 53
-180 176 -298 350 -334 59 -12 62 -14 103 -75 23 -35 53 -71 67 -80 25 -16 27
-16 48 5 20 20 22 32 21 123 0 69 -4 103 -12 106 -9 3 -9 9 -1 23 67 125 44
315 -57 474 -58 91 -232 311 -267 336 -57 41 -113 40 -162 -3z m54 -242 c27
-29 26 -93 -2 -110 -15 -9 -23 -5 -48 22 -32 36 -37 72 -13 96 21 22 37 20 63
-8z"/>
<path d="M2633 4728 c-64 -66 -93 -178 -55 -210 9 -8 29 -19 45 -26 19 -8 27
-19 27 -36 0 -48 59 -81 123 -70 75 12 134 97 153 219 7 49 0 57 -77 79 -31 9
-63 23 -70 32 -16 20 -70 44 -97 44 -10 0 -32 -15 -49 -32z"/>
<path d="M2324 4116 c-33 -33 -39 -54 -34 -115 3 -32 27 -69 51 -76 22 -7 26
-25 4 -25 -26 0 -84 -60 -110 -115 -28 -59 -34 -160 -14 -212 63 -157 169
-261 307 -299 56 -16 62 -16 107 1 172 66 164 374 -13 558 -52 53 -114 87
-161 87 l-30 0 24 36 c31 45 32 85 4 134 -21 37 -54 60 -85 60 -9 0 -31 -15
-50 -34z m50 -45 c9 -14 -4 -41 -20 -41 -8 0 -14 8 -14 18 0 29 22 43 34 23z
m54 -287 c28 -20 28 -45 -2 -81 -33 -40 -46 -68 -46 -100 0 -16 -6 -38 -14
-48 -13 -18 -15 -18 -39 -2 -32 21 -46 70 -38 128 16 98 79 146 139 103z"/>
<path d="M7120 4112 c0 -6 -6 -17 -13 -24 -7 -7 -32 -42 -56 -78 -24 -36 -49
-68 -55 -72 -6 -4 -7 -8 -3 -8 4 0 -4 -11 -19 -25 -15 -14 -25 -28 -22 -30 3
-3 20 11 37 32 43 52 47 55 73 75 70 53 73 56 61 69 -8 8 -9 19 -2 37 5 13 7
27 4 30 -3 3 -5 0 -5 -6z"/>
<path d="M7278 4103 c7 -3 16 -2 19 1 4 3 -2 6 -13 5 -11 0 -14 -3 -6 -6z"/>
<path d="M7412 4005 c0 -16 2 -22 5 -12 2 9 2 23 0 30 -3 6 -5 -1 -5 -18z"/>
<path d="M7438 3963 c7 -3 16 -2 19 1 4 3 -2 6 -13 5 -11 0 -14 -3 -6 -6z"/>
<path d="M7418 3943 c7 -3 16 -2 19 1 4 3 -2 6 -13 5 -11 0 -14 -3 -6 -6z"/>
<path d="M7471 3894 c0 -11 3 -14 6 -6 3 7 2 16 -1 19 -3 4 -6 -2 -5 -13z"/>
<path d="M7471 3854 c0 -11 3 -14 6 -6 3 7 2 16 -1 19 -3 4 -6 -2 -5 -13z"/>
<path d="M6915 3840 c-16 -17 -16 -20 -3 -15 9 4 19 13 22 21 7 19 2 18 -19
-6z"/>
<path d="M1750 3082 c0 -24 8 -49 19 -63 26 -33 37 -17 17 25 -9 19 -16 41
-16 49 0 9 -4 19 -10 22 -6 4 -10 -10 -10 -33z"/>
<path d="M6962 9075 c0 -16 2 -22 5 -12 2 9 2 23 0 30 -3 6 -5 -1 -5 -18z"/>
<path d="M2261 8544 c0 -11 3 -14 6 -6 3 7 2 16 -1 19 -3 4 -6 -2 -5 -13z"/>
<path d="M7821 8604 c0 -11 3 -14 6 -6 3 7 2 16 -1 19 -3 4 -6 -2 -5 -13z"/>
<path d="M9318 6223 c7 -3 16 -2 19 1 4 3 -2 6 -13 5 -11 0 -14 -3 -6 -6z"/>
<path d="M9348 6083 c7 -3 16 -2 19 1 4 3 -2 6 -13 5 -11 0 -14 -3 -6 -6z"/>
<path d="M9443 5863 c9 -2 25 -2 35 0 9 3 1 5 -18 5 -19 0 -27 -2 -17 -5z"/>
<path d="M9463 5773 c9 -2 25 -2 35 0 9 3 1 5 -18 5 -19 0 -27 -2 -17 -5z"/>
<path d="M6277 3629 c7 -7 15 -10 18 -7 3 3 -2 9 -12 12 -14 6 -15 5 -6 -5z"/>
<path d="M6025 3610 c3 -5 10 -10 16 -10 5 0 9 5 9 10 0 6 -7 10 -16 10 -8 0
-12 -4 -9 -10z"/>
<path d="M5970 3595 c0 -8 5 -15 10 -15 6 0 10 7 10 15 0 8 -4 15 -10 15 -5 0
-10 -7 -10 -15z"/>
<path d="M6038 3573 c6 -2 18 -2 25 0 6 3 1 5 -13 5 -14 0 -19 -2 -12 -5z"/>
<path d="M5830 3559 c0 -5 5 -7 10 -4 6 3 10 8 10 11 0 2 -4 4 -10 4 -5 0 -10
-5 -10 -11z"/>
<path d="M5998 3513 c7 -3 16 -2 19 1 4 3 -2 6 -13 5 -11 0 -14 -3 -6 -6z"/>
<path d="M4967 3453 c18 -2 50 -2 70 0 21 2 7 4 -32 4 -38 0 -55 -2 -38 -4z"/>
<path d="M9193 3763 c9 -2 23 -2 30 0 6 3 -1 5 -18 5 -16 0 -22 -2 -12 -5z"/>
<path d="M1040 3670 c0 -5 7 -7 15 -4 8 4 15 8 15 10 0 2 -7 4 -15 4 -8 0 -15
-4 -15 -10z"/>
<path d="M3733 1757 c2 -12 48 -41 99 -64 26 -12 27 -11 16 6 -20 32 -120 83
-115 58z"/>
<path d="M7482 1630 c0 -14 2 -19 5 -12 2 6 2 18 0 25 -3 6 -5 1 -5 -13z"/>
<path d="M7202 1395 c0 -16 2 -22 5 -12 2 9 2 23 0 30 -3 6 -5 -1 -5 -18z"/>
<path d="M2742 1555 c0 -16 2 -22 5 -12 2 9 2 23 0 30 -3 6 -5 -1 -5 -18z"/>
<path d="M6632 1205 c0 -16 2 -22 5 -12 2 9 2 23 0 30 -3 6 -5 -1 -5 -18z"/>
<path d="M3750 1139 c0 -5 5 -7 10 -4 6 3 10 8 10 11 0 2 -4 4 -10 4 -5 0 -10
-5 -10 -11z"/>
<path d="M6272 1035 c0 -16 2 -22 5 -12 2 9 2 23 0 30 -3 6 -5 -1 -5 -18z"/>
<path d="M2355 9350 c0 -272 1 -384 2 -247 2 136 2 358 0 495 -1 136 -2 24 -2
-248z"/>
<path d="M2465 9395 c0 -247 1 -347 2 -222 2 126 2 328 0 450 -1 122 -2 20 -2
-228z"/>
<path d="M3534 9645 c0 -110 2 -156 3 -103 2 53 2 143 0 200 -1 57 -3 13 -3
-97z"/>
<path d="M3854 9695 c0 -82 2 -115 3 -72 2 43 2 110 0 150 -1 40 -3 5 -3 -78z"/>
<path d="M3914 9700 c0 -80 2 -112 3 -72 2 39 2 105 0 145 -1 39 -3 7 -3 -73z"/>
<path d="M4134 9725 c0 -66 1 -92 3 -57 2 34 2 88 0 120 -2 31 -3 3 -3 -63z"/>
<path d="M6794 9615 c0 -126 2 -177 3 -112 2 65 2 168 0 230 -1 62 -3 9 -3
-118z"/>
<path d="M6944 9590 c0 -140 2 -198 3 -127 2 70 2 184 0 255 -1 70 -3 12 -3
-128z"/>
<path d="M7625 9415 c0 -236 1 -332 2 -212 2 120 2 314 0 430 -1 117 -2 19 -2
-218z"/>
<path d="M7925 9310 c0 -294 1 -415 2 -267 2 147 2 387 0 535 -1 147 -2 26 -2
-268z"/>
<path d="M8065 9255 c0 -324 1 -456 2 -292 2 164 2 430 0 590 -1 161 -2 27 -2
-298z"/>
<path d="M8175 9210 c0 -349 1 -492 2 -317 2 174 2 460 0 635 -1 174 -2 31 -2
-318z"/>
<path d="M523 5893 c9 -2 23 -2 30 0 6 3 -1 5 -18 5 -16 0 -22 -2 -12 -5z"/>
<path d="M9708 5673 c7 -3 16 -2 19 1 4 3 -2 6 -13 5 -11 0 -14 -3 -6 -6z"/>
<path d="M518 4563 c6 -2 18 -2 25 0 6 3 1 5 -13 5 -14 0 -19 -2 -12 -5z"/>
<path d="M9683 4443 c9 -2 25 -2 35 0 9 3 1 5 -18 5 -19 0 -27 -2 -17 -5z"/>
<path d="M533 4283 c15 -2 37 -2 50 0 12 2 0 4 -28 4 -27 0 -38 -2 -22 -4z"/>
<path d="M8935 1370 c0 -536 1 -756 2 -487 2 268 2 706 0 975 -1 268 -2 48 -2
-488z"/>
<path d="M7985 1020 c0 -344 1 -484 2 -312 2 171 2 453 0 625 -1 171 -2 31 -2
-313z"/>
<path d="M2310 985 c0 -383 3 -585 10 -585 7 0 10 202 10 585 0 383 -3 585
-10 585 -7 0 -10 -202 -10 -585z"/>
<path d="M858 1523 c193 -2 511 -2 705 0 193 1 35 2 -353 2 -388 0 -546 -1
-352 -2z"/>
<path d="M7125 760 c0 -201 1 -283 2 -183 2 101 2 265 0 365 -1 101 -2 19 -2
-182z"/>
<path d="M6554 650 c0 -140 2 -198 3 -128 2 71 2 185 0 255 -1 71 -3 13 -3
-127z"/>
<path d="M6504 640 c0 -135 2 -190 3 -122 2 67 2 177 0 245 -1 67 -3 12 -3
-123z"/>
<path d="M6394 625 c0 -126 2 -177 3 -112 2 65 2 168 0 230 -1 62 -3 9 -3
-118z"/>
</g>
</svg>
